<svg xmlns="http://www.w3.org/2000/svg" viewBox="0 0 900 450">
  <path fill="#fafafa" d="M0 0h900v450H0z"/>
  <path fill="#2a303c" d="m0 139 21.5 3.5C43 146 86 153 128.8 151.8c42.9-1.1 85.5-10.5 128.4-21 42.8-10.5 85.8-22.1 128.6-24.1 42.9-2 85.5 5.6 128.4 5.3 42.8-.3 85.8-8.7 128.6-14.3 42.9-5.7 85.5-8.7 128.4 5.6 42.8 14.4 85.8 46 107.3 61.9L900 181v270H0Z"/>
  <path fill="#2a303c" d="m0 171 21.5 16.5C43 204 86 237 128.8 233.2c42.9-3.9 85.5-44.5 128.4-62.4C300 153 343 158 385.8 158c42.9 0 85.5-5 128.4 9 42.8 14 85.8 47 128.6 57.8 42.9 10.9 85.5-.5 128.4-7.6C814 210 857 207 878.5 205.5L900 204v247H0Z"/>
  <path fill="#2a303c" d="m0 302 21.5-10.7c21.5-10.6 64.5-32 107.3-43.6 42.9-11.7 85.5-13.7 128.4-8 42.8 5.6 85.8 19 128.6 18.1 42.9-.8 85.5-15.8 128.4-26.5 42.8-10.6 85.8-17 128.6-13.3 42.9 3.7 85.5 17.3 128.4 23.5 42.8 6.2 85.8 4.8 107.3 4.2l21.5-.7v206H0Z"/>
  <path fill="#2a303c" d="m0 347 21.5-1.2c21.5-1.1 64.5-3.5 107.3-2.8 42.9.7 85.5 4.3 128.4 6.8 42.8 2.5 85.8 3.9 128.6-2.1 42.9-6 85.5-19.4 128.4-31.4 42.8-12 85.8-22.6 128.6-24.5 42.9-1.8 85.5 5.2 128.4 10.5 42.8 5.4 85.8 9 107.3 10.9L900 315v136H0Z"/>
  <path fill="#2a303c" d="m0 362 21.5 4.7c21.5 4.6 64.5 14 107.3 16.3 42.9 2.3 85.5-2.3 128.4-2 42.8.3 85.8 5.7 128.6 1.5 42.9-4.2 85.5-17.8 128.4-15.5 42.8 2.3 85.8 20.7 128.6 22.7 42.9 2 85.5-12.4 128.4-17.9 42.8-5.5 85.8-2.1 107.3-.5L900 373v78H0Z"/>
</svg>
