<svg xmlns="http://www.w3.org/2000/svg" viewBox="0 0 500 500">
  <path d="M469.86 316.39c-14.73 39.43-44.81 82.11-87.14 94.75-64 19.1-71.6 70.65-186.16 65.87a230.92 230.92 0 0 1-49.56-7.26 194.41 194.41 0 0 1-23.27-7.75C56.8 434.89 21.89 375.23 19 312.81c-3.82-82.11 53.46-121.24 90.69-144.15S191.79 57 304.44 60.77a224.06 224.06 0 0 1 50.92 7.44c37.91 10.26 76.44 33 98.84 66.12q2.52 3.75 4.82 7.64c29.98 50.85 30.91 120.66 10.84 174.42Z" style="fill:#407bff"/>
  <path d="M469.86 316.39c-14.73 39.43-44.81 82.11-87.14 94.75-64 19.1-71.6 70.65-186.16 65.87a230.92 230.92 0 0 1-49.56-7.26 194.41 194.41 0 0 1-23.27-7.75C56.8 434.89 21.89 375.23 19 312.81c-3.82-82.11 53.46-121.24 90.69-144.15S191.79 57 304.44 60.77a224.06 224.06 0 0 1 50.92 7.44c37.91 10.26 76.44 33 98.84 66.12q2.52 3.75 4.82 7.64c29.98 50.85 30.91 120.66 10.84 174.42Z" style="fill:#fff;opacity:.7000000000000001"/>
  <path d="M408 343.29h42v17h-42zm-4-151.5h42v17h-42zm-152 60h42v17h-42zm20-99.29h42v17h-42zm87-19h42v17h-42zm-298 204h42v17H61zm97 61h42v17h-42z" style="opacity:.2"/>
  <path d="M381 215.29h42v17h-42zm-44 94.5h42v17h-42zm-301 1h42v17H36zm210 26h42v17h-42zm4-24h42v17h-42zm179-97.5h42v17h-42z" style="opacity:.1"/>
  <path d="M304 396.79h42v17h-42z" style="opacity:.2"/>
  <path d="M281 420.29h42v17h-42zm48 0h42v17h-42z" style="opacity:.1"/>
  <path d="M100.39 185.2h42v17h-42z" style="opacity:.2"/>
  <path d="M77.39 208.7h42v17h-42zm48 0h42v17h-42z" style="opacity:.1"/>
  <path d="M84 311.79h42v17H84z" style="opacity:.2"/>
  <path d="M270 230.5h42v17h-42zm-63 167h42v17h-42zm130-285h42v17h-42z" style="opacity:.1"/>
  <path d="M60 255.5h42v17H60z" style="opacity:.2"/>
  <path d="M84 234.5h42v17H84zm107-87.21h42v17h-42z" style="opacity:.1"/>
  <path d="M337 252.29h42v17h-42zm-30.61 90.91h42v17h-42z" style="opacity:.2"/>
  <path d="M99 116.5h42v17H99zm48 0h42v17h-42zm185 249h42v17h-42zm-299-196h42v17H33z" style="opacity:.1"/>
  <path d="M358.39 343.7h42v17h-42z" style="opacity:.2"/>
  <path d="M327 147.29h42v17h-42zm-92-30.79h42v17h-42zm48 0h42v17h-42z" style="opacity:.1"/>
  <path d="M67.18 162.09c3.72-3.66 10.42-2.87 10.42-2.87s.69 6.72-3 10.38-10.42 2.87-10.42 2.87-.71-6.72 3-10.38Z" style="fill:#263238;stroke:#263238;stroke-miterlimit:10"/>
  <path d="M71.9 150c4.56 2.52 5.7 9.18 5.7 9.18s-6.24 2.56-10.8 0-5.71-9.18-5.71-9.18 6.25-2.49 10.81 0Z" style="fill:#263238;stroke:#263238;stroke-miterlimit:10"/>
  <path d="M84.97 35.75v132.88" style="fill:none;stroke:#263238;stroke-miterlimit:10"/>
  <path d="M86.68 153.34c-2.44 4.61-9.08 5.88-9.08 5.88s-2.67-6.2-.23-10.81 9.07-5.87 9.07-5.87 2.68 6.2.24 10.8Zm-6.17 16.29c-3.67-3.7-2.91-10.41-2.91-10.41s6.72-.71 10.39 3 2.9 10.42 2.9 10.42-6.71.69-10.38-3.01Z" style="fill:#263238;stroke:#263238;stroke-miterlimit:10"/>
  <path d="M89.72 163.64c4.93-1.69 10.64 1.93 10.64 1.93s-2.29 6.35-7.22 8-10.64-1.92-10.64-1.92 2.29-6.32 7.22-8.01Z" style="fill:#263238;stroke:#263238;stroke-miterlimit:10"/>
  <path d="M99.19 154.82c3 4.25 1.17 10.75 1.17 10.75s-6.74-.4-9.76-4.65-1.16-10.75-1.16-10.75 6.74.4 9.75 4.65Z" style="fill:#263238;stroke:#263238;stroke-miterlimit:10"/>
  <path d="M111.08 164.2c-4.19 3.1-10.72 1.37-10.72 1.37s.27-6.75 4.46-9.85 10.73-1.36 10.73-1.36-.28 6.75-4.47 9.84Zm-12.62 12.01c-1.7-4.93 1.9-10.64 1.9-10.64s6.36 2.27 8.06 7.19-1.89 10.65-1.89 10.65-6.36-2.27-8.07-7.2Zm-42.53-13.37c4.51 1.69 6.46 7.62 6.46 7.62S57 173.65 52.52 172s-6.46-7.62-6.46-7.62 5.36-3.23 9.87-1.54Z" style="fill:#263238;stroke:#263238;stroke-miterlimit:10"/>
  <path d="M67.87 162.11c-.34 4.81-5.48 8.35-5.48 8.35s-4.57-4.24-4.23-9.05 5.48-8.35 5.48-8.35 4.58 4.25 4.23 9.05Z" style="fill:#263238;stroke:#263238;stroke-miterlimit:10"/>
  <path d="M70.84 175.79c-4.81-.26-8.45-5.33-8.45-5.33s4.16-4.65 9-4.4 8.45 5.33 8.45 5.33-4.19 4.61-9 4.4Zm-16.05 1.15c1.68-4.51 7.6-6.48 7.6-6.48s3.21 5.36 1.53 9.87-7.6 6.48-7.6 6.48-3.21-5.35-1.53-9.87Z" style="fill:#263238;stroke:#263238;stroke-miterlimit:10"/>
  <path d="M98.18 168.15c4.93-1.69 10.64 1.93 10.64 1.93s-2.29 6.35-7.22 8S91 176.2 91 176.2s2.25-6.36 7.18-8.05Z" style="fill:#407bff"/>
  <path d="M107.65 159.33c3 4.25 1.17 10.75 1.17 10.75s-6.75-.4-9.76-4.65-1.17-10.75-1.17-10.75 6.75.4 9.76 4.65Z" style="fill:#407bff"/>
  <path d="M119.54 168.71c-4.2 3.1-10.72 1.37-10.72 1.37s.27-6.75 4.46-9.85 10.72-1.36 10.72-1.36-.27 6.75-4.46 9.84Z" style="fill:#407bff"/>
  <path d="M106.92 180.72c-1.7-4.93 1.9-10.64 1.9-10.64s6.36 2.27 8.06 7.2-1.88 10.64-1.88 10.64-6.37-2.27-8.08-7.2Z" style="fill:#407bff"/>
  <path d="M82.39 206a8.27 8.27 0 0 1 6.76 3.94 19.13 19.13 0 0 1 2.26 8.46s-9.59-1.18-9.02-12.4Zm3.38 23.07a8.29 8.29 0 0 1 6.77 3.93 19.2 19.2 0 0 1 2.25 8.46s-9.58-1.12-9.02-12.39Zm7.33 23.12a8.29 8.29 0 0 1 6.77 3.94 19.2 19.2 0 0 1 2.25 8.46s-9.58-1.13-9.02-12.4ZM81.51 216a8.29 8.29 0 0 1 1.23 7.73 19.2 19.2 0 0 1-5.12 7.11s-5.2-8.12 3.89-14.84Zm6.98 27.32a8.3 8.3 0 0 1 1.23 7.74 19.22 19.22 0 0 1-5.12 7.1s-5.2-8.16 3.89-14.84Z" style="fill:#263238;stroke:#263238;stroke-miterlimit:10"/>
  <path d="M81.26 200.87s-.57 33.27 14.66 57" style="fill:none;stroke:#263238;stroke-miterlimit:10"/>
  <path d="M114.31 187.78a7.13 7.13 0 0 0-5.83 3.4 16.53 16.53 0 0 0-1.94 7.29s8.26-.97 7.77-10.69Zm-2.91 19.92a7.13 7.13 0 0 0-5.83 3.4 16.46 16.46 0 0 0-1.95 7.29s8.26-.97 7.78-10.69Zm-6.32 19.92a7.13 7.13 0 0 0-5.83 3.4 16.53 16.53 0 0 0-1.94 7.29s8.26-.97 7.77-10.69Zm9.99-31.16a7.15 7.15 0 0 0-1.06 6.67 16.48 16.48 0 0 0 4.41 6.11s4.48-7-3.35-12.78ZM109.05 220a7.15 7.15 0 0 0-1.06 6.67 16.55 16.55 0 0 0 4.42 6.12s4.47-7.03-3.36-12.79Z" style="fill:#263238;stroke:#263238;stroke-miterlimit:10"/>
  <path d="M115.28 183.41s.49 28.67-12.63 49.07" style="fill:none;stroke:#263238;stroke-miterlimit:10"/>
  <path d="M45.85 172.11A39.76 39.76 0 0 0 85 204.82a39.76 39.76 0 0 0 39.12-32.71Z" style="fill:#fff;stroke:#263238;stroke-miterlimit:10"/>
  <path d="M102.73 169.29a249.57 249.57 0 0 1-5.07 40.4c-4.52 20.85-4 31.28 0 46.92s.56 23.46-1.7 31.93-4.51 15.64-4.51 15.64" style="fill:none;stroke:#263238;stroke-miterlimit:10"/>
  <path d="M101.6 183s-6.76 5.21-7.33 10.42a31.52 31.52 0 0 0 .57 9.78s8.45-2.63 6.76-20.2ZM96 217.51s-6.76 5.21-7.33 10.43a31.43 31.43 0 0 0 .57 9.77s8.42-2.6 6.76-20.2Zm1.09 40.4s-6.77 5.22-7.33 10.43a31.61 31.61 0 0 0 .56 9.77s8.46-2.6 6.77-20.2Zm-3.38 37.8s-6.77 5.21-7.33 10.42a31.3 31.3 0 0 0 .56 9.78s8.46-2.61 6.77-20.2Zm9.02-115.34a8 8 0 0 1 6.77 4.56 25 25 0 0 1 2.25 9.77s-9.58-1.3-9.02-14.33ZM98.78 209a8 8 0 0 1 6.77 4.56 25 25 0 0 1 2.26 9.78s-9.59-1.27-9.03-14.34ZM96 241a8 8 0 0 1 6.77 4.56 25 25 0 0 1 2.26 9.78S95.4 254 96 241Zm3.35 35.16a8 8 0 0 1 6.76 4.56 25 25 0 0 1 2.26 9.78s-9.59-1.31-9.02-14.34Z" style="fill:#407bff"/>
  <path d="M67.28 171.76s-4.59 6.55-4.59 17.27 10.15 23.68 9 37.22-3.39 18-3.39 31 1.7 18.06 1.7 18.06" style="fill:none;stroke:#263238;stroke-miterlimit:10"/>
  <path d="M61.56 185.64s-6.76 0-8.45 4.52a23.09 23.09 0 0 0-1.7 7.33s5.08-.57 6.77-3.39a49.22 49.22 0 0 0 3.38-8.46Zm3.95 16.92s-6.76 4.51-7.33 9a23.66 23.66 0 0 0 .57 8.46s8.45-2.23 6.76-17.46Zm2.26 51.88s-6.77 4.51-7.33 9a23.53 23.53 0 0 0 .56 8.46s8.46-2.23 6.77-17.46Zm2.82-24.25s-6.77 4.51-7.33 9a23.56 23.56 0 0 0 .56 8.46s8.46-2.23 6.77-17.46ZM62.69 189a8.29 8.29 0 0 1 6.77 4 19.07 19.07 0 0 1 2.26 8.45s-9.59-1.14-9.03-12.45Zm6.77 55.86a8.29 8.29 0 0 1 6.77 3.94 19.2 19.2 0 0 1 2.25 8.46s-9.58-1.13-9.02-12.4Zm0 31.01a8.29 8.29 0 0 1 6.77 3.95 19.2 19.2 0 0 1 2.25 8.46s-9.58-1.13-9.02-12.41Zm1.69-60.34a8.29 8.29 0 0 1 6.77 3.95 19.2 19.2 0 0 1 2.25 8.46s-9.58-1.13-9.02-12.41Zm-8.03-57.93c3.56 3.8 2.61 10.49 2.61 10.49s-6.73.52-10.3-3.28-2.61-10.49-2.61-10.49 6.73-.52 10.3 3.28Z" style="fill:#407bff"/>
  <path d="M75.05 162.62c-2.64 4.49-9.32 5.47-9.32 5.47s-2.4-6.31.23-10.81 9.33-5.47 9.33-5.47 2.4 6.31-.24 10.81Z" style="fill:#407bff"/>
  <path d="M71.38 177.31c-4.55-2.56-5.65-9.22-5.65-9.22s6.27-2.52 10.81 0 5.65 9.22 5.65 9.22-6.27 2.55-10.81 0Z" style="fill:#407bff"/>
  <path d="M55.25 170.73c3.79-3.57 10.48-2.64 10.48-2.64s.54 6.73-3.25 10.31S52 181 52 181s-.54-6.69 3.25-10.27ZM81.77 169c3.71-3.66 10.42-2.87 10.42-2.87s.69 6.72-3 10.38-10.42 2.87-10.42 2.87-.71-6.68 3-10.38Z" style="fill:#407bff"/>
  <path d="M86.48 157c4.56 2.52 5.71 9.18 5.71 9.18s-6.25 2.56-10.81 0-5.71-9.18-5.71-9.18 6.25-2.54 10.81 0Z" style="fill:#407bff"/>
  <path d="M101.26 160.29c-2.44 4.61-9.07 5.88-9.07 5.88S89.51 160 92 155.36s9.07-5.87 9.07-5.87 2.63 6.2.19 10.8Zm-6.17 16.29c-3.67-3.7-2.9-10.41-2.9-10.41s6.71-.71 10.38 3 2.91 10.42 2.91 10.42-6.72.69-10.39-3.01Z" style="fill:#407bff"/>
  <path d="M45.85 172.11 84.97 35.75l39.12 136.36" style="fill:none;stroke:#263238;stroke-miterlimit:10"/>
  <path d="M79.79 29h10.36v13.5H79.79z" style="fill:#fff;stroke:#263238;stroke-miterlimit:10"/>
  <path d="M213.2 190.85s-17.68-4-30.54 2.81-14.46 16.48-18.08 29.74-12.05 27.32-19.69 39 4.82 28.53 24.11 35.36 52.64 6 67.51-2.81 10-24.11 6.43-36.16-5.63-19.29-5.63-23.31 7.65-6.67 2.41-22.9c-4.01-12.49-16.07-24.14-26.52-21.73Z" style="fill:#263238;stroke:#263238;stroke-linecap:round;stroke-linejoin:round"/>
  <path d="M166.53 243.15c-3.34 1.33-5.38 1.91-5.38 1.91m48.45-38.69s-4.7 12.3-19.53 23.5a102.5 102.5 0 0 1-18.76 11.23m24.97-37.78c-2.77 3.54-7.26 9.25-13.8 17.52-12.29 15.54-15.55 18.43-21 20.24m38.36-42.3-1.92 2.45m16.38-6.79s13.38 10.85 9 18.44m15.23 4.65a9.57 9.57 0 0 1-.37 6.56m-16.27-22.78s10.76 5.47 15.18 12.92" style="fill:none;stroke:#828282;stroke-linecap:round;stroke-linejoin:round"/>
  <path d="M251.86 425.92c-3.11.94-51.35 22.1-66 27.08a125.39 125.39 0 0 1-28.33 5.92l7.11 14.69a241.1 241.1 0 0 0 31.9 3.4c44.16 1.84 72.42-4.69 94.15-14.5-3.6-8.61-9.85-22.91-14.26-29.43-6.51-9.65-21.43-8.08-24.57-7.16Z" style="fill:#263238;stroke:#263238;stroke-linecap:round;stroke-linejoin:round"/>
  <path d="M232.84 436c23.83-6.62 32.79-9 44.86-2.87-1.25-2.49-7.16-11.82-7.16-11.82-10.58-2.81-45.13 5.91-72.21 16.8s-43.58 2.18-43.58 2.18-.31 19.61 6.54 21.17c0-.05 47.71-18.89 71.55-25.46Z" style="fill:#407bff;stroke:#263238;stroke-linecap:round;stroke-linejoin:round"/>
  <path d="M178.28 281.18s-50.92 16.2-52.79 19.93-19.29 71-19.29 71 6.22 8.09 9.64 10.58a14 14 0 0 0 15.57 0C137 378.92 144.48 364 144.48 364s10 75 10.27 76.26 5 5.92 12.45 8.1 40.78-10 59.14-15.26 33.62-7.16 40.46-8.4 9-4.05 7.79-9.65-1.25-17.43-1.25-17.43 13.07 10.27 15.25 4.67-9-27.39-14-48.56-6.85-48.55-16.19-53.22-45.75-14.94-45.75-14.94-25.31-6.16-33.36-3.86" style="fill:#407bff;stroke:#263238;stroke-linecap:round;stroke-linejoin:round"/>
  <path d="m241.23 331.59 4.41 44.84m-5.29-53.84.45 4.64m-36.91 46.98c1.23.79 2.49 1.54 3.78 2.22m-23.04-19.6a94.47 94.47 0 0 0 17.16 16m-11.24-4.18a114.33 114.33 0 0 0 16.8 11.83m30.06 44.78c3.56.22 6.76.35 9.16.35m-41.39-3.11s14.74 1.5 27.51 2.5m-49.61-.32s20.54 4.05 36.72 4.05" style="fill:none;stroke:#263238;stroke-linecap:round;stroke-linejoin:round"/>
  <path d="M180.59 274.34s-5.75 11.94-5.3 17.12 8.1 13.7 19.61 14.63 20.86-6.54 22.1-10 3.12-14.32 3.12-14.32-14.32 3.74-25.84-2.8-13.38-7.47-13.38-7.47Z" style="fill:#407bff;stroke:#263238;stroke-linecap:round;stroke-linejoin:round"/>
  <path d="M221.24 215s-8.44 12-18.48 16.88a135.07 135.07 0 0 1-20.5 7.63s-.4 5.63-2.41 6.43-4.42-2-4.42-2l-6 1.61a6.13 6.13 0 0 0-.4 6c1.61 3.22 6.43 4 6.43 4s3.22 15.67 6.83 20.5S198.74 290.5 208 289.3s24.49-17.3 24.89-23.3 1.21-18.48 1.61-24.91 1.61-10.09-1.21-14.09-12.05-12-12.05-12Z" style="fill:#fff;stroke:#263238;stroke-linecap:round;stroke-linejoin:round"/>
  <path d="M193.92 252.33s4 3.61 10.44 1.2m13.26.41s6 2.81 9.65 0" style="fill:none;stroke:#263238;stroke-linecap:round;stroke-linejoin:round"/>
  <path d="M194.32 243.89s7.63-2.41 14.06 0m9.24.8s9.25-1.6 12.06 1.21" style="fill:none;stroke:#263238;stroke-linecap:round;stroke-linejoin:round;stroke-width:2px"/>
  <path d="M215.21 265.59s-3.61 2.41-7.23 1.2m-7.23 4.02A16.67 16.67 0 0 0 218 272" style="fill:none;stroke:#263238;stroke-linecap:round;stroke-linejoin:round"/>
  <path d="M286.1 397.6c-4.67-7.47-18.05-9-23-7.16s-10.58-.31-10.58-.31l-15.57 17.12s16.81 7.47 24.9 12.45 14.32 4.67 21.79-3.11 5-15.57 5-15.57" style="fill:#407bff;stroke:#263238;stroke-linecap:round;stroke-linejoin:round"/>
  <path d="M238.48 392s-4.36 7.78-2.8 13.07 14 0 18.67-8.4-10.58-13.08-15.87-4.67Z" style="fill:#fff;stroke:#263238;stroke-linecap:round;stroke-linejoin:round"/>
  <path d="m242.27 346.06-20.13 37.66a1.65 1.65 0 0 0 1.2 2.4L242.4 389a1.63 1.63 0 0 0 1.63-.74l23-36.57a1.65 1.65 0 0 0-1.1-2.49l-22-4a1.67 1.67 0 0 0-1.66.86Z" style="fill:#263238;stroke:#263238;stroke-linecap:round;stroke-linejoin:round"/>
  <path d="M245 398.53s-11.52-5.6-13.39-8.09-.62-3.73-.62-3.73-4-1.87-5.6-4.36 1.86-3.11 1.86-3.11l20.55 4s-10.9-4.36-13.08-4.36a2.79 2.79 0 0 1-2.8-3.73c.63-1.87 1.25-2.49 5.61-1.25s14.94 3.74 14.94 3.74-.32-2.8-1.25-3.42-9.34-3.43-11.2-5.3-.32-3.42 1.86-3.42 16.19 5 17.43 5.91 0 8.72 0 8.72 0 7.47-1.24 11.21-8.07 10.93-8.07 10.93" style="fill:#fff;stroke:#263238;stroke-linecap:round;stroke-linejoin:round"/>
  <path d="m231.01 386.71 15.25 6.22m1.56-9.65 7.78 4.98m-3.11-10.58s3.73 1.56 5 3.11" style="fill:none;stroke:#263238;stroke-linecap:round;stroke-linejoin:round"/>
  <path d="M147 423.64v46.11a194.41 194.41 0 0 1-23.27-7.75v-38.36Z" style="fill:#263238;stroke:#263238;stroke-linecap:round;stroke-linejoin:round"/>
  <rect width="38.96" height="31.34" x="115.69" y="398.23" rx="7.28" style="fill:#263238;stroke:#263238;stroke-linecap:round;stroke-linejoin:round"/>
  <path d="M229.08 398.37c-12.23-6.23-48.42-10.74-91.17-10.74S59 392.14 46.75 398.37h-4.43V403c0 8.49 42.8 15.37 95.59 15.37s95.59-6.88 95.59-15.37v-4.63Z" style="fill:#263238;stroke:#263238;stroke-linecap:round;stroke-linejoin:round"/>
  <ellipse cx="137.91" cy="398.37" rx="95.59" ry="15.37" style="fill:#fff;stroke:#263238;stroke-linecap:round;stroke-linejoin:round"/>
  <path d="M165.61 294.36s-4.81-20.52-4.81-22.55 10.89-8.87 13.43-10.39 4.81.76 4.81.76a9.91 9.91 0 0 0 3.55 2c1.52.25 2.79 2 2.79 4.05s.5 9.38.5 11.15-2.79 3.8-4.31 3.8-1.26-3-1.26-3a4.88 4.88 0 0 1-2 1 5.4 5.4 0 0 0-1.52.26s1 11.4-1 15.2a35.22 35.22 0 0 0-2.79 6.59L136 381s-6.08 11.41-14.19 11.66-16-5.32-17-12.92 2.54-16.22 7.86-22.3 47.62-54.21 52.94-63.08Z" style="fill:#fff;stroke:#263238;stroke-linecap:round;stroke-linejoin:round"/>
  <path d="M176.76 281.44v-5.32l5.5-.08-3 5.65s-.73-1.01-2.5-.25Z" style="fill:#fff;stroke:#263238;stroke-linecap:round;stroke-linejoin:round"/>
  <path d="M182.59 264.21s-11.15 5.06-12.93 6.58l-1.77 1.53M179 262.18s-11.4 5.57-14.95 8.61m-1.48-1.79.34-.37c1.57-1.7 8.11-8.75 8.78-8.75s2.54 1.52 2.54 1.52Z" style="fill:none;stroke:#263238;stroke-linecap:round;stroke-linejoin:round"/>
  <path d="M156.13 306.75c-14.35 17.54-39.46 46.11-43.48 50.71-5.32 6.08-8.87 14.69-7.86 22.3s8.87 13.17 17 12.92S136 381 136 381l31.68-66.6a55.92 55.92 0 0 1-11.55-7.65Z" style="fill:#407bff;stroke:#263238;stroke-linecap:round;stroke-linejoin:round"/>
  <path d="M75.73 334.71a10.17 10.17 0 0 0 .68 4.24c2.08 5.2 2.69 7.35 1.84 11.57m-.51-22.45a15.46 15.46 0 0 0-1.49 3.55m8.92-3.55s-3.45 5.57-1.32 10.88 2.68 7.35 1.84 11.57m7.8-3.07a17.25 17.25 0 0 1-.37 3.07m-.51-22.45s-3.45 5.57-1.33 10.88a47.42 47.42 0 0 1 1.72 4.72" style="fill:none;stroke:#263238;stroke-linecap:round;stroke-miterlimit:10"/>
  <path d="M99 361.77s3.44-3.45 6-.63 1.57 16.92-.63 21.3-7.22.23-7.22.23v-3.05a3.32 3.32 0 0 0 4.75-.42c2.51-2.51 1.83-12.42.89-14s-4.7.63-4.7.63Z" style="fill:#fff;stroke:#263238;stroke-linecap:round;stroke-linejoin:round"/>
  <path d="M93 396H77.26a4.31 4.31 0 0 1-4.3-4l-2.69-37.76H100L97.33 392a4.3 4.3 0 0 1-4.33 4ZM433.1 37.38h-49.9l-.05.18c-1.48 5.32-4.88 8.77-8.65 8.77h-2.16c-3.77 0-7.17-3.45-8.65-8.77l-.05-.18h-49.9a25.16 25.16 0 0 0-25.16 25.17v285A14.44 14.44 0 0 0 303 362h140.83a14.45 14.45 0 0 0 14.44-14.44v-285a25.17 25.17 0 0 0-25.17-25.18Z" style="fill:#fff;stroke:#263238;stroke-linecap:round;stroke-linejoin:round"/>
  <path d="M300.59 108.13v.27h-1v-.32c0-.89-.34-1.41-1.13-1.41s-1.13.52-1.13 1.39c0 2.21 3.31 2.42 3.31 5.2 0 1.49-.72 2.46-2.22 2.46s-2.21-1-2.21-2.46v-.57h1v.62c0 .89.36 1.41 1.15 1.41s1.15-.52 1.15-1.41c0-2.19-3.29-2.4-3.29-5.18 0-1.52.7-2.46 2.18-2.46s2.19.97 2.19 2.46Zm2.07 3.06v4.43h-1.1v-9.85h1.1v4.43h2.42v-4.43h1.1v9.85h-1.1v-4.43Zm5.76 2.45-.39 2h-1l1.89-9.85h1.59l1.88 9.85h-1.09l-.38-2Zm.14-1h2.19l-1.11-5.64Zm6.88-6.87c1.55 0 2.19.79 2.19 2.25v.8c0 1.09-.37 1.76-1.22 2 .9.27 1.24 1 1.24 2.06v1.53a2.37 2.37 0 0 0 .2 1.18h-1.12a2.65 2.65 0 0 1-.18-1.19v-1.55c0-1.11-.52-1.47-1.44-1.47h-.77v4.21h-1.1v-9.85Zm-.28 4.64c.87 0 1.39-.28 1.39-1.35v-.94c0-.89-.32-1.35-1.14-1.35h-1.07v3.64Zm7.13-.28v1h-2.4v3.5h2.95v1h-4v-9.85h4v1h-2.95v3.36Zm4.86 3.51-.38 2h-1l1.88-9.85h1.59l1.89 9.85H330l-.38-2Zm.14-1h2.2l-1.11-5.64Zm6.87 2.98v-9.85h1.1v8.85h2.81v1Zm5.84-9.85v9.85h-1.1v-9.85Zm2.1 9.85h-1v-9.85h1.4l2.28 7.12v-7.12h1v9.85h-1.14l-2.52-8Zm6.46-4.28-.58 1v3.31h-1.09v-9.85H348v4.76l2.62-4.76h1.11l-2.49 4.49 2.58 5.36h-1.13ZM305.2 225.93v4.44h-1.1v-9.86h1.1V225h2.42v-4.44h1.1v9.86h-1.1v-4.44Zm6.06 4.44v-8.86h-1.81v-1h4.71v1h-1.81v8.86Zm5.07 0v-8.86h-1.81v-1h4.71v1h-1.81v8.86Zm5.8-9.86c1.55 0 2.21.92 2.21 2.41v1.18c0 1.57-.73 2.38-2.29 2.38h-1v3.89H320v-9.86Zm-.08 5c.81 0 1.21-.38 1.21-1.33v-1.3c0-.91-.33-1.36-1.13-1.36h-1.05v4Zm7.41-2.63v.27h-1v-.33c0-.88-.33-1.4-1.12-1.4s-1.13.52-1.13 1.39c0 2.21 3.31 2.42 3.31 5.19 0 1.5-.72 2.47-2.23 2.47s-2.2-1-2.2-2.47v-.56h1v.62c0 .89.37 1.41 1.16 1.41s1.15-.52 1.15-1.41c0-2.2-3.29-2.41-3.29-5.18 0-1.52.7-2.46 2.18-2.46s2.17.97 2.17 2.46Zm2.03.76V225h-1.05v-1.37Zm0 5.36v1.37h-1.05V229Zm5.63-8.49-3.88 9.86h-1l3.88-9.86Zm2.76 0-3.88 9.86h-1l3.88-9.86Zm2.54 6.32-2.09-6.32h1.14l1.54 4.85 1.55-4.85h1l-2.1 6.32v3.54h-1.08Zm3.67-3.94c0-1.5.75-2.47 2.25-2.47a2.16 2.16 0 0 1 2.27 2.47V228a2.17 2.17 0 0 1-2.27 2.48c-1.5 0-2.25-1-2.25-2.48Zm1.08 5.16c0 .9.38 1.42 1.17 1.42s1.17-.52 1.17-1.42v-5.21c0-.89-.37-1.42-1.17-1.42s-1.17.53-1.17 1.42Zm5.52 0c0 .88.35 1.42 1.16 1.42s1.14-.54 1.14-1.42v-7.54h1V228c0 1.49-.69 2.49-2.21 2.49s-2.19-1-2.19-2.49v-7.48h1.08Zm6.6-7.54c1.55 0 2.2.79 2.2 2.26v.8a1.84 1.84 0 0 1-1.23 2c.91.26 1.24 1 1.24 2.05v1.54a2.51 2.51 0 0 0 .2 1.18h-1.11a2.56 2.56 0 0 1-.18-1.2v-1.55c0-1.11-.53-1.46-1.44-1.46h-.77v4.21h-1.1v-9.86Zm-.28 4.65c.87 0 1.4-.28 1.4-1.35v-.94c0-.89-.33-1.36-1.14-1.36h-1.07v3.65Zm3.63 5.21v-9.86h1.1v8.86h2.82v1Zm5.85-9.86v9.86h-1.1v-9.86Zm2.09 9.86h-1v-9.86H371l2.28 7.13v-7.13h1v9.86h-1.18l-2.52-8Zm6.42-4.28-.57 1v3.31h-1.1v-9.86h1.1v4.76l2.61-4.76h1.12l-2.49 4.5 2.57 5.36h-1.12Zm8.63-5.58-3.88 9.86h-1l3.88-9.86Z" style="fill:#263238"/>
  <text style="font-size:14.076910018920898px;fill:#407bff;font-family:BebasNeueRegular,Bebas Neue" transform="translate(424.76 230.37)">co<tspan x="10.83" y="0" style="letter-spacing:-.002011827344348612em">p</tspan><tspan x="16.02" y="0">y</tspan></text>
  <path d="M295.05 255.99h155.07" style="fill:none;stroke:#263238;stroke-miterlimit:10"/>
  <circle cx="308.94" cy="134.3" r="10.8" style="fill:#263238;stroke:#263238;stroke-linecap:round;stroke-linejoin:round"/>
  <circle cx="341.34" cy="134.3" r="10.8" style="fill:#407bff;stroke:#263238;stroke-linecap:round;stroke-linejoin:round"/>
  <circle cx="373.74" cy="134.3" r="10.8" style="fill:#263238;stroke:#263238;stroke-linecap:round;stroke-linejoin:round"/>
  <circle cx="406.15" cy="134.3" r="10.8" style="fill:#407bff;stroke:#263238;stroke-linecap:round;stroke-linejoin:round"/>
  <circle cx="438.55" cy="134.3" r="10.8" style="fill:#263238;stroke:#263238;stroke-linecap:round;stroke-linejoin:round"/>
  <path d="M299.68 152.04h18.51m13.89 0h18.52m13.89 0H383m13.89 0h18.52m13.88 0h18.52" style="fill:none;stroke:#263238;stroke-miterlimit:10"/>
  <circle cx="308.94" cy="175.19" r="10.8" style="fill:#407bff;stroke:#263238;stroke-linecap:round;stroke-linejoin:round" transform="rotate(-13.35 308.827103 175.120813)"/>
  <circle cx="341.34" cy="175.19" r="10.8" style="fill:#263238;stroke:#263238;stroke-linecap:round;stroke-linejoin:round" transform="rotate(-67.66 341.31722 175.190893)"/>
  <circle cx="373.74" cy="175.19" r="10.8" style="fill:#407bff;stroke:#263238;stroke-linecap:round;stroke-linejoin:round" transform="rotate(-67.66 373.716212 175.195294)"/>
  <circle cx="406.15" cy="175.19" r="10.8" style="fill:#263238;stroke:#263238;stroke-linecap:round;stroke-linejoin:round" transform="rotate(-13.35 406.009407 175.147166)"/>
  <circle cx="438.55" cy="175.19" r="10.8" style="fill:#407bff;stroke:#263238;stroke-linecap:round;stroke-linejoin:round" transform="rotate(-45 438.545462 175.188522)"/>
  <path d="M299.68 192.93h18.51m13.89 0h18.52m13.89 0H383m13.89 0h18.52m13.88 0h18.52M294.28 215.1H450.9v22.37H294.28z" style="fill:none;stroke:#263238;stroke-miterlimit:10"/>
  <path d="M458.27 83.25v-20.7a25.17 25.17 0 0 0-25.17-25.17h-49.9l-.05.18c-1.48 5.32-4.88 8.77-8.65 8.77h-2.16c-3.77 0-7.17-3.45-8.65-8.77l-.05-.18h-49.9a25.16 25.16 0 0 0-25.16 25.17v20.7Z" style="fill:#c2c2c2;stroke:#263238;stroke-linecap:round;stroke-linejoin:round"/>
  <path d="M304.52 72.67h56.7v6.8h-56.7zm153.75-2.79v-7.33a25.17 25.17 0 0 0-25.17-25.17h-49.9l-.05.18c-1.48 5.32-4.88 8.77-8.65 8.77h-2.16c-3.77 0-7.17-3.45-8.65-8.77l-.05-.18h-49.9a25.16 25.16 0 0 0-25.16 25.17v7.33Z" style="fill:#fff;stroke:#263238;stroke-linecap:round;stroke-linejoin:round"/>
  <path d="M469.06 129.51V97.62h-2.88V56.79A25.16 25.16 0 0 0 441 31.63H305.83a25.15 25.15 0 0 0-25.16 25.16v294.45a25.16 25.16 0 0 0 25.16 25.17H441a25.17 25.17 0 0 0 25.17-25.17V156.69h2.88v-18.84h-2.88v-8.34Zm-10.79 203.76a25.16 25.16 0 0 1-25.17 25.16H313.74a25.15 25.15 0 0 1-25.16-25.16V62.55a25.16 25.16 0 0 1 25.16-25.17h49.9l.05.18c1.48 5.32 4.88 8.77 8.65 8.77h2.16c3.77 0 7.17-3.45 8.65-8.77l.05-.18h49.9a25.17 25.17 0 0 1 25.17 25.17Z" style="fill:#707070;stroke:#263238;stroke-linecap:round;stroke-linejoin:round"/>
  <path d="M436.6 35.09H310.24a26.67 26.67 0 0 0-26.66 26.67v284.52a26.66 26.66 0 0 0 26.66 26.66H436.6a26.65 26.65 0 0 0 26.66-26.66V61.76a26.66 26.66 0 0 0-26.66-26.67Zm21.67 298.18a25.16 25.16 0 0 1-25.17 25.16H313.74a25.15 25.15 0 0 1-25.16-25.16V62.55a25.16 25.16 0 0 1 25.16-25.17h49.9l.05.18c1.48 5.32 4.88 8.77 8.65 8.77h2.16c3.77 0 7.17-3.45 8.65-8.77l.05-.18h49.9a25.17 25.17 0 0 1 25.17 25.17Z" style="fill:#263238;stroke:#263238;stroke-linecap:round;stroke-linejoin:round"/>
  <path d="M375.27 38.59A2.37 2.37 0 1 0 372.9 41a2.37 2.37 0 0 0 2.37-2.41Z" style="fill:#707070"/>
  <path d="M303.66 47.64c0 2.39-2.69 3.25-2.7 5.07v.13h2.6v.8h-3.47V53c0-2.56 2.68-3.05 2.68-5.29 0-.81-.27-1.24-.93-1.24s-.93.46-.93 1.16v.71h-.82v-.65c0-1.21.55-2 1.78-2s1.79.74 1.79 1.95Zm4.34-.01v.2a1.56 1.56 0 0 1-1 1.63 1.58 1.58 0 0 1 1 1.65v.61c0 1.21-.56 2-1.79 2s-1.77-.79-1.77-2v-.55h.82v.6c0 .72.3 1.15.93 1.15s.93-.42.93-1.23v-.61c0-.78-.33-1.15-1-1.17h-.47v-.8h.52c.59 0 .95-.39.95-1.09v-.36c0-.81-.28-1.23-.93-1.23s-.93.44-.93 1.15V48h-.82v-.36c0-1.21.56-2 1.77-2s1.79.78 1.79 1.99Zm1.71.6v1.1h-.85v-1.1Zm0 4.31v1.1h-.85v-1.1Zm1.79-3.6a1.27 1.27 0 0 1 1.18-.65c1 0 1.47.74 1.47 1.88v1.55c0 1.21-.58 2-1.79 2s-1.78-.79-1.78-2v-.53h.83v.58c0 .72.29 1.15.93 1.15s.92-.43.92-1.15v-1.54c0-.71-.29-1.14-.92-1.14a.86.86 0 0 0-.9.85v.18h-.83l.22-4.41H314v.8h-2.34Zm7.06-1.32v.14h-.83v-.2c0-.71-.3-1.13-.94-1.13s-1 .43-1 1.28v1.78a1.26 1.26 0 0 1 1.28-.85c1 0 1.47.73 1.47 1.88v1.2c0 1.21-.6 2-1.81 2s-1.83-.79-1.83-2v-4c0-1.25.57-2 1.83-2s1.83.68 1.83 1.9Zm-2.73 3v1.19c0 .72.29 1.15.94 1.15s.94-.43.94-1.15v-1.23c0-.71-.31-1.14-.94-1.14s-.94.43-.94 1.14Zm87.05-2.65h2.24v5.6h-2.24zm2.99-1.13h2.24v6.72h-2.24zm2.98-.79h2.24v7.51h-2.24zm2.99-1.39h2.24v8.9h-2.24zm29.95 8.75h-13.44V45.2h13.44Zm-12.69-.75H441V46h-11.9Z" style="fill:#263238"/>
  <path d="M430.22 46.76h7.09v5.09h-7.09zm11.1 1.58h1.69v1.93h-1.69zm-17.89 3.28a.48.48 0 0 1-.26-.07c-2.73-1.62-4.54-.11-4.62 0a.5.5 0 0 1-.66-.75c.1-.09 2.41-2.07 5.79-.06a.51.51 0 0 1 .18.69.5.5 0 0 1-.43.19Z" style="fill:#263238"/>
  <path d="M424.44 49.94a.59.59 0 0 1-.26-.07c-3.95-2.35-6.61-.08-6.64-.06a.5.5 0 0 1-.66-.75s3.24-2.78 7.81-.06a.5.5 0 0 1-.25.94Z" style="fill:#263238"/>
  <path d="M425.36 48a.48.48 0 0 1-.26-.07c-5-3-8.34-.17-8.48 0a.49.49 0 0 1-.7 0 .5.5 0 0 1 0-.7s4-3.42 9.65-.06a.51.51 0 0 1 .18.69.5.5 0 0 1-.39.14Zm-3.44 4.46a1.26 1.26 0 1 1-1.26-1.25 1.26 1.26 0 0 1 1.26 1.25Z" style="fill:#263238"/>
</svg>
