<svg xmlns="http://www.w3.org/2000/svg" viewBox="0 0 500 500">
  <path d="M453.76 175c-15.43-33.19-38.5-62.78-60.13-92.37-31.76-43.5-118.7-72.76-188.92-39.32s-63.54 87.78-85.27 131.25S35 260.66 25.81 305c-14.16 68.2-3.46 116.1 76.07 144.59 60.36 21.62 125.7-19.22 184.75-29.26 39.17-6.66 82-1.57 119.69-17.28 46.28-19.31 61.94-78.4 65.61-124a215.76 215.76 0 0 0-3.81-61.84A196.33 196.33 0 0 0 453.76 175Z" style="fill:#407bff"/>
  <path d="M453.76 175c-15.43-33.19-38.5-62.78-60.13-92.37-31.76-43.5-118.7-72.76-188.92-39.32s-63.54 87.78-85.27 131.25S35 260.66 25.81 305c-14.16 68.2-3.46 116.1 76.07 144.59 60.36 21.62 125.7-19.22 184.75-29.26 39.17-6.66 82-1.57 119.69-17.28 46.28-19.31 61.94-78.4 65.61-124a215.76 215.76 0 0 0-3.81-61.84A196.33 196.33 0 0 0 453.76 175Z" style="fill:#fff;opacity:.7000000000000001"/>
  <g style="opacity:.2">
    <rect width="150.59" height="18.41" x="293.41" y="48.5" rx="7.34" style="fill:none;stroke:#000;stroke-linejoin:round"/>
    <path d="M420.78 52.75v8.61" style="fill:none;stroke:#000;stroke-linejoin:round;stroke-width:.5px"/>
    <path d="M434.88 61.13a.68.68 0 0 1-1 .08l-3.31-3 .63-.75 3.55 2.72a.68.68 0 0 1 .13.95Z" style="fill:#263238;stroke:#000;stroke-linejoin:round"/>
    <path d="M426.38 54.07a3.12 3.12 0 1 0 4.4-.42 3.11 3.11 0 0 0-4.4.42Zm4.47 3.69a2.67 2.67 0 1 1-.36-3.76 2.67 2.67 0 0 1 .36 3.76Z" style="fill:none;stroke:#000;stroke-linejoin:round"/>
  </g>
  <path d="M154.28 81.79a3.58 3.58 0 0 1-5.12.41L133 67.5a16.11 16.11 0 0 0 1.87-1.91 14.47 14.47 0 0 0 1.52-2.18l17.33 13.27a3.58 3.58 0 0 1 .56 5.11Z" style="fill:none;stroke:#ccc;stroke-linejoin:round"/>
  <path d="M132.63 42.52a16 16 0 0 1 4.59 5.89 16.43 16.43 0 1 1-30.9 2.53 16.32 16.32 0 0 1 26.31-8.42Zm.37 21.56a14.06 14.06 0 1 1-1.86-19.8 14.05 14.05 0 0 1 1.86 19.8ZM391.45 444a2.88 2.88 0 0 1 .21-4.13l13.43-11.37a12.5 12.5 0 0 0 1.33 1.69 12 12 0 0 0 1.58 1.45l-12.41 12.46a2.87 2.87 0 0 1-4.14-.1Z" style="fill:none;stroke:#ccc;stroke-linejoin:round"/>
  <path d="M425.09 430.84a13 13 0 0 1-5.19 3 13.56 13.56 0 1 1 5.19-3Zm-17.27-1.94a11.33 11.33 0 1 1 16 .59 11.32 11.32 0 0 1-16-.59Z" style="fill:none;stroke:#ccc;stroke-linejoin:round"/>
  <g style="opacity:.2">
    <path d="M89.74 406.74 66.8 429.69m0-22.95 22.94 22.95" style="fill:none;stroke:#000;stroke-linejoin:round"/>
  </g>
  <g style="opacity:.2">
    <path d="M53.74 59.74 30.8 82.69m0-22.95 22.94 22.95" style="fill:none;stroke:#000;stroke-linejoin:round"/>
  </g>
  <path d="M74.57 204.78c.06 0-.85-3.81-.93-4.05-1-2.71-4.47-7.37-7.7-7.26a3.81 3.81 0 0 0-3.52 4.46c.31 2.26 2.41 4.13 4.28 5.18 2.21 1.23 7.86 1.67 7.87 1.67Z" style="fill:#263238"/>
  <path d="M80 178.72c-3 1.19-4.32 6.86-4.13 9.74 0 .25.72 4.11.77 4.08h.06c-.21.89-.44 1.85-.66 2.91-.39 2-.81 4.15-1.11 6.59a67.74 67.74 0 0 0-.6 7.89 50.93 50.93 0 0 0 .6 8.84.43.43 0 0 1 0 .11c-.42-.85-1.7-3.17-1.81-3.34-1.67-2.35-6.26-5.93-9.34-5a3.83 3.83 0 0 0-2.22 5.24c.89 2.09 3.41 3.34 5.5 3.86 2.35.58 7.53-.38 7.94-.45a68.44 68.44 0 0 0 2.22 8.75c.53 1.67 1.12 3.33 1.73 5-.39-.72-.75-1.36-.81-1.44-1.66-2.36-6.25-5.94-9.34-5a3.82 3.82 0 0 0-2.22 5.23c.9 2.1 3.42 3.34 5.51 3.86s6.55-.2 7.72-.41c.24.63.47 1.27.72 1.91 1.16 3 2.34 6.08 3.41 9.09.38 1.06.71 2.12 1 3.18-.35-.64-.65-1.17-.7-1.25-1.66-2.35-6.26-5.93-9.34-5a3.82 3.82 0 0 0-2.22 5.24c.89 2.09 3.41 3.34 5.5 3.86s6.12-.14 7.51-.38c.31 1.1.63 2.19.88 3.27.15.73.36 1.43.47 2.18s.26 1.47.38 2.2c.2 1.4.41 2.85.56 4.23.11 1 .2 1.87.3 2.79-.36-1.06-1.12-3.13-1.2-3.29a14.86 14.86 0 0 0-5.08-5.4 5.41 5.41 0 0 0-.45-.72 3.83 3.83 0 0 0-5.64-.69c-2.37 2.19-1.57 8-.36 10.58.08.15 1 1.74 1.66 2.73l-1.36-1.58c-.94-1.07-1.9-2.11-2.93-3.23l-1.57-1.58c-.51-.55-1.12-1.05-1.68-1.58-1.34-1.21-2.75-2.36-4.19-3.5.93-.82 4.2-3.77 5.11-5.74s1.5-4.7.42-6.71a3.82 3.82 0 0 0-5.47-1.53c-2.68 1.8-2.76 7.63-2 10.4.05.17.85 2.09 1.31 3.14-.87-.68-1.74-1.35-2.65-2-2.62-1.88-5.32-3.71-8-5.55l-2.46-1.69c.34-.29 4.31-3.72 5.32-5.93.9-2 1.5-4.69.42-6.7a3.81 3.81 0 0 0-5.48-1.55c-2.68 1.81-2.76 7.63-2 10.4.06.21 1.22 3 1.55 3.66-1.81-1.25-3.59-2.51-5.3-3.83a68 68 0 0 1-6.58-5.72c.15-.14 4.31-3.7 5.34-6 .9-2 1.51-4.69.43-6.7a3.83 3.83 0 0 0-5.44-1.5c-2.67 1.81-2.75 7.63-2 10.4.06.22 1.31 3.19 1.57 3.71-.12-.12-.26-.23-.37-.35a49.29 49.29 0 0 1-5.46-6.84c-.9-1.33-1.7-2.66-2.44-4 .84-.59 4.66-3.3 5.82-5.23s2-4.5 1.16-6.62a3.82 3.82 0 0 0-5.28-2.12c-2.86 1.5-3.57 7.28-3.08 10.12 0 .15.47 1.69.81 2.81-.32-.6-.67-1.21-1-1.78-1.14-2.16-2-4.21-2.83-6-.44-1-.82-2-1.16-2.88.53-1 2.6-5.08 2.74-7.28s-.3-4.93-2-6.41a3.81 3.81 0 0 0-5.66.54c-1.85 2.65.18 8.11 1.92 10.4.15.2 2.87 3 2.9 3v-.06c.31.86.66 1.78 1.06 2.78.75 1.85 1.61 3.92 2.7 6.12a69.3 69.3 0 0 0 3.86 6.91 50.5 50.5 0 0 0 5.38 7l.07.07c-.82-.47-3.16-1.7-3.35-1.78-2.69-1.05-8.49-1.49-10.53 1a3.82 3.82 0 0 0 1 5.59c1.9 1.25 4.69.9 6.72.18 2.29-.81 6.08-4.46 6.38-4.76a68.34 68.34 0 0 0 6.67 6.08c1.37 1.1 2.78 2.17 4.21 3.22-.73-.39-1.38-.72-1.47-.76-2.69-1.05-8.49-1.5-10.53 1a3.82 3.82 0 0 0 1 5.59c1.9 1.25 4.69.9 6.72.18S51 250.8 51.89 250c.56.4 1.1.8 1.66 1.19 2.65 1.9 5.31 3.78 7.86 5.7.9.68 1.76 1.38 2.62 2.08-.64-.34-1.18-.62-1.27-.65-2.69-1.05-8.49-1.5-10.53 1a3.83 3.83 0 0 0 1 5.6c1.91 1.25 4.69.9 6.72.18s5-3.49 6.06-4.46c.86.74 1.73 1.48 2.53 2.24.54.53 1.09 1 1.6 1.57s1 1.08 1.53 1.62c.94 1.06 1.91 2.16 2.8 3.22.62.73 1.2 1.44 1.79 2.16-.89-.69-2.66-2-2.82-2.08-2.49-1.45-8.16-2.77-10.56-.6a3.82 3.82 0 0 0 .18 5.68c1.69 1.53 4.5 1.6 6.61 1.2 2.33-.45 6.47-3.35 7-3.71 1 1.18 1.89 2.35 2.75 3.46 1.13 1.45 2.17 2.83 3.1 4.11.62-.1 1.37-.24 2.25-.4-1.14-1.5-2.42-3.14-3.85-4.9-1-1.21-2-2.48-3.15-3.78a43.6 43.6 0 0 0 2.94-3.89c2.29.81 7 .69 7.63.67.15 1.52.28 3 .38 4.4.18 2.42.31 4.63.39 6.6l2-.48c-.13-1.89-.29-4-.51-6.28-.15-1.55-.34-3.2-.55-4.89.6-.17 5.47-1.6 7.27-3.14 1.64-1.4 3.33-3.64 3.2-5.91a3.83 3.83 0 0 0-4.33-3.69c-3.19.52-5.7 5.77-6.13 8.62 0 .17-.1 2-.13 3.2-.09-.69-.16-1.36-.26-2.07-.19-1.41-.42-2.81-.67-4.31-.14-.72-.28-1.45-.43-2.19s-.35-1.49-.53-2.25c-.45-1.74-1-3.48-1.57-5.22 1.23-.17 5.59-.83 7.43-2s3.85-3.09 4.06-5.36a3.83 3.83 0 0 0-3.72-4.3c-3.23 0-6.51 4.84-7.37 7.59 0 .17-.45 2.22-.64 3.35-.36-1-.71-2.09-1.11-3.14-1.14-3-2.39-6-3.62-9.05-.38-.92-.74-1.85-1.11-2.77.43-.06 5.63-.73 7.69-2 1.83-1.14 3.85-3.09 4.06-5.36a3.83 3.83 0 0 0-3.72-4.3c-3.23 0-6.51 4.84-7.37 7.59-.06.21-.63 3.15-.73 3.91-.82-2-1.61-4.08-2.31-6.12a66.84 66.84 0 0 1-2.33-8.41c.21 0 5.64-.7 7.74-2 1.83-1.13 3.85-3.09 4.06-5.36a3.82 3.82 0 0 0-3.72-4.3c-3.23 0-6.51 4.84-7.37 7.59-.06.22-.67 3.39-.74 4 0-.17-.08-.34-.11-.5a49.18 49.18 0 0 1-.78-8.71c0-1.62 0-3.16.15-4.66 1 0 5.71-.18 7.74-1.15s4.16-2.65 4.61-4.88a3.81 3.81 0 0 0-3.22-4.68c-3.21-.33-7 4.1-8.16 6.74-.06.14-.54 1.67-.87 2.79.06-.67.1-1.37.17-2 .25-2.43.62-4.64 1-6.59.21-1.11.42-2.11.62-3 1-.55 5-2.81 6.3-4.57s2.47-4.27 1.85-6.46a3.82 3.82 0 0 0-4.95-2.77Z" style="fill:#263238"/>
  <path d="M23.28 230.42c2.52-.19 7.48-2.95 7.48-2.95s-2.81-2.71-3-2.86c-2.31-1.72-7.79-3.69-10.42-1.81a3.82 3.82 0 0 0-.48 5.66c1.49 1.72 4.27 2.11 6.42 1.96ZM240.14 74c0 .05 2.76-3.48 2.91-3.73 1.69-2.81 3.32-9.24.9-12a4.36 4.36 0 0 0-6.48.09c-1.77 1.89-1.91 5.09-1.5 7.5.49 2.78 4.16 8.14 4.17 8.14Z" style="fill:#263238"/>
  <path d="M267.05 60c-3.21-1.8-9.17 1.1-11.58 3.34-.21.19-3.12 3.58-3.05 3.61h.07c-1 .45-2 .94-3.05 1.5-2 1.06-4.26 2.27-6.63 3.75a76.19 76.19 0 0 0-7.41 5.14 56.19 56.19 0 0 0-7.4 6.92l-.08.09c.44-1 1.58-3.77 1.64-4 .9-3.16.76-9.79-2.3-11.83a4.36 4.36 0 0 0-6.23 1.8c-1.21 2.29-.5 5.41.54 7.63 1.17 2.51 5.74 6.4 6.1 6.71a76.08 76.08 0 0 0-6.15 8.24c-1.1 1.67-2.15 3.39-3.18 5.12.35-.86.66-1.63.69-1.75.89-3.16.76-9.79-2.3-11.83a4.37 4.37 0 0 0-6.23 1.79c-1.21 2.3-.5 5.42.54 7.64s4.88 5.65 5.9 6.54c-.39.67-.79 1.33-1.17 2-1.86 3.23-3.7 6.45-5.6 9.55-.67 1.1-1.37 2.15-2.06 3.21.31-.77.57-1.42.6-1.52.89-3.16.76-9.79-2.31-11.83a4.34 4.34 0 0 0-6.22 1.79c-1.22 2.3-.51 5.42.53 7.64s4.51 5.32 5.72 6.38c-.74 1.06-1.49 2.12-2.26 3.11-.54.67-1 1.35-1.59 2l-1.67 1.92c-1.11 1.18-2.24 2.4-3.35 3.52-.76.79-1.5 1.53-2.25 2.27.68-1.08 2-3.23 2.05-3.42a16.81 16.81 0 0 0 1.15-8.45 4.28 4.28 0 0 0 .32-.91 4.35 4.35 0 0 0-3.44-5.49c-3.64-.52-8.17 4.33-9.61 7.28-.08.17-.8 2.16-1.23 3.43.14-.79.29-1.54.42-2.35.27-1.59.5-3.19.75-4.91.1-.83.19-1.67.28-2.52s.13-1.74.19-2.62c.11-2 .12-4.13.09-6.22 1.39.24 6.36 1 8.74.4s5.24-2 6.24-4.44a4.34 4.34 0 0 0-2.57-5.94c-3.52-1.07-8.73 3-10.6 5.73-.12.17-1.24 2.26-1.84 3.41 0-1.25-.06-2.51-.13-3.78-.21-3.67-.53-7.38-.84-11.08-.1-1.13-.18-2.26-.27-3.39.5.09 6.38 1.14 9.06.45 2.37-.61 5.23-2 6.24-4.44a4.35 4.35 0 0 0-2.58-5.94c-3.51-1.08-8.72 3-10.6 5.73-.14.2-1.76 3.21-2.13 4-.19-2.49-.35-5-.41-7.43a75.77 75.77 0 0 1 .34-9.94c.23 0 6.36 1.17 9.1.46 2.38-.6 5.24-2 6.24-4.43a4.35 4.35 0 0 0-2.57-5.95c-3.52-1.07-8.73 3-10.6 5.73-.15.22-1.89 3.45-2.16 4.06v-.58a55.72 55.72 0 0 1 2.14-9.74c.53-1.76 1.13-3.41 1.76-5 1.12.33 6.26 1.76 8.79 1.4s5.43-1.45 6.69-3.72a4.36 4.36 0 0 0-1.9-6.2c-3.38-1.45-9 2.06-11.17 4.54-.12.13-1.16 1.63-1.9 2.74.29-.72.58-1.46.87-2.14 1.1-2.56 2.26-4.83 3.31-6.83.61-1.14 1.17-2.15 1.72-3.1 1.26-.25 6.35-1.34 8.4-2.8s4.15-3.79 4.22-6.39a4.36 4.36 0 0 0-4.49-4.66c-3.67.27-7 6-7.82 9.17-.07.28-.62 4.71-.56 4.7h.08c-.54.9-1.11 1.87-1.71 2.94-1.09 2-2.31 4.24-3.46 6.78a76.14 76.14 0 0 0-3.35 8.41 57 57 0 0 0-2.38 9.81.49.49 0 0 1 0 .12c-.17-1.06-.76-4-.83-4.24-1-3.13-4.77-8.59-8.45-8.6a4.36 4.36 0 0 0-4.22 4.91c.26 2.58 2.57 4.8 4.66 6.08 2.36 1.44 8.32 2.17 8.79 2.22a76.94 76.94 0 0 0-.58 10.27c0 2 .07 4 .17 6-.18-.92-.35-1.73-.39-1.85-1-3.12-4.77-8.58-8.45-8.59a4.35 4.35 0 0 0-4.2 4.93c.25 2.58 2.57 4.79 4.66 6.07s7.19 2 8.53 2.2c0 .77.08 1.54.13 2.32.23 3.71.47 7.41.6 11 .05 1.28 0 2.55.05 3.81-.17-.81-.31-1.49-.34-1.6-1-3.13-4.77-8.58-8.45-8.59a4.34 4.34 0 0 0-4.2 4.93c.25 2.58 2.56 4.79 4.66 6.07s6.69 2 8.29 2.16c0 1.3-.08 2.6-.17 3.85-.08.86-.1 1.68-.24 2.54s-.22 1.69-.33 2.52c-.27 1.59-.54 3.24-.84 4.78-.21 1.08-.42 2.11-.63 3.14 0-1.28-.15-3.78-.18-4-.51-3.24-3.41-9.21-7.05-9.77a4.35 4.35 0 0 0-4.9 4.23c-.14 2.6 1.81 5.13 3.69 6.71 2.06 1.74 7.6 3.33 8.3 3.52-.36 1.71-.72 3.36-1.09 4.92q-.72 3.08-1.41 5.7c.53.47 1.19 1 2 1.69.51-2.07 1-4.38 1.58-6.91.37-1.73.73-3.59 1.08-5.5a48.2 48.2 0 0 0 5.55-.2c.93 2.61 4.43 6.71 4.88 7.23-1.23 1.23-2.45 2.41-3.62 3.5-2 1.9-3.87 3.59-5.56 5.08.61.47 1.23 1 1.88 1.45 1.59-1.47 3.33-3.12 5.2-5 1.26-1.24 2.58-2.59 3.93-4 .58.41 5.33 3.69 8 4.18 2.42.44 5.61.34 7.53-1.42a4.36 4.36 0 0 0 .16-6.47c-2.75-2.45-9.2-.9-12 .76-.17.1-1.86 1.37-2.92 2.19.55-.58 1.09-1.13 1.64-1.73 1.11-1.18 2.18-2.38 3.34-3.68.53-.64 1.08-1.29 1.62-2s1.07-1.39 1.61-2.08c1.22-1.65 2.37-3.37 3.5-5.14 1 1 4.74 4.35 7.07 5.16s5.5 1.18 7.65-.26a4.35 4.35 0 0 0 1.14-6.38c-2.34-2.83-8.95-2.28-12-1.06-.19.07-2.28 1.19-3.41 1.83.66-1.07 1.34-2.13 2-3.23 1.85-3.17 3.62-6.45 5.4-9.7.55-1 1.11-2 1.66-3 .36.35 4.69 4.47 7.3 5.37 2.32.81 5.49 1.19 7.65-.26a4.36 4.36 0 0 0 1.14-6.38c-2.35-2.83-9-2.28-12-1.06-.23.09-3.24 1.7-4 2.15 1.22-2.18 2.45-4.34 3.75-6.43a78.88 78.88 0 0 1 5.77-8.1c.17.17 4.67 4.48 7.34 5.41 2.32.81 5.49 1.19 7.65-.26a4.35 4.35 0 0 0 1.14-6.38c-2.34-2.83-9-2.28-12-1.06-.24.09-3.47 1.83-4 2.19.13-.15.24-.32.36-.46a56 56 0 0 1 7.15-6.94c1.42-1.18 2.83-2.23 4.23-3.21.76.89 4.26 4.92 6.57 6s5.33 1.78 7.63.58A4.36 4.36 0 0 0 256 75c-2-3.07-8.65-3.25-11.81-2.37-.18 0-1.87.72-3.1 1.23.64-.43 1.29-.9 1.91-1.3 2.32-1.53 4.55-2.78 6.53-3.88 1.13-.61 2.16-1.14 3.13-1.63 1.2.49 6.05 2.39 8.56 2.3s5.55-.88 7-3a4.36 4.36 0 0 0-1.17-6.35Z" style="fill:#263238"/>
  <path d="M180.65 47c2 2.1 8 4.5 8 4.51s.38-4.44.37-4.72c-.14-3.28-2.33-9.54-5.88-10.52a4.35 4.35 0 0 0-5.35 3.64c-.47 2.54 1.21 5.29 2.86 7.09Zm289.66 251.2s2-2.57 2.15-2.75c1.24-2.07 2.44-6.81.66-8.85a3.2 3.2 0 0 0-4.77.06c-1.31 1.4-1.42 3.75-1.11 5.53.36 2.09 3.07 6.01 3.07 6.01Z" style="fill:#263238"/>
  <path d="M490.14 287.93c-2.36-1.33-6.76.81-8.53 2.46-.16.14-2.3 2.64-2.25 2.66h.05c-.7.33-1.44.7-2.24 1.11-1.48.78-3.14 1.67-4.89 2.76a54.21 54.21 0 0 0-5.46 3.79 41.3 41.3 0 0 0-5.45 5.06l-.06.07c.33-.73 1.17-2.78 1.22-2.95.65-2.33.56-7.21-1.7-8.71a3.21 3.21 0 0 0-4.59 1.31c-.89 1.7-.37 4 .4 5.63.86 1.85 4.22 4.72 4.49 4.94a58.4 58.4 0 0 0-4.53 6.07q-1.22 1.86-2.35 3.78l.52-1.29c.65-2.33.55-7.21-1.7-8.72a3.21 3.21 0 0 0-4.59 1.32c-.89 1.7-.37 4 .39 5.63s3.6 4.17 4.36 4.82l-.87 1.48c-1.37 2.37-2.72 4.74-4.12 7-.5.81-1 1.58-1.52 2.36.23-.56.42-1 .44-1.11.66-2.33.56-7.22-1.7-8.72a3.21 3.21 0 0 0-4.59 1.32c-.89 1.69-.37 4 .4 5.63s3.32 3.91 4.21 4.69c-.55.79-1.09 1.57-1.66 2.3-.4.49-.75 1-1.18 1.47l-1.23 1.41c-.81.87-1.65 1.77-2.46 2.6-.56.58-1.11 1.12-1.66 1.67.5-.8 1.45-2.38 1.51-2.52a12.45 12.45 0 0 0 .85-6.23 3.32 3.32 0 0 0 .23-.67 3.2 3.2 0 0 0-2.53-4c-2.69-.39-6 3.18-7.08 5.36-.07.12-.59 1.59-.91 2.52.1-.57.21-1.13.31-1.72.2-1.18.37-2.35.55-3.62q.11-.91.21-1.86c.08-.62.09-1.29.14-1.93.08-1.51.09-3 .06-4.58 1 .17 4.69.74 6.45.29s3.85-1.5 4.59-3.27a3.2 3.2 0 0 0-1.89-4.38c-2.59-.79-6.43 2.24-7.81 4.23-.09.12-.92 1.66-1.36 2.51 0-.93 0-1.85-.09-2.79-.16-2.7-.4-5.43-.63-8.16-.07-.83-.12-1.67-.19-2.5.37.07 4.7.84 6.67.33 1.75-.45 3.86-1.5 4.6-3.27a3.21 3.21 0 0 0-1.9-4.38c-2.59-.79-6.43 2.24-7.81 4.23-.1.15-1.29 2.36-1.57 2.94-.14-1.84-.26-3.67-.3-5.48a55.2 55.2 0 0 1 .25-7.32c.17 0 4.69.86 6.71.34 1.75-.45 3.85-1.51 4.59-3.27a3.2 3.2 0 0 0-1.89-4.38c-2.59-.79-6.43 2.24-7.81 4.22-.11.16-1.39 2.54-1.59 3v-.43a41.31 41.31 0 0 1 1.57-7.17c.39-1.3.84-2.52 1.3-3.69.82.24 4.61 1.29 6.48 1s4-1.07 4.93-2.75a3.2 3.2 0 0 0-1.41-4.56c-2.49-1.07-6.63 1.52-8.22 3.34-.09.1-.86 1.21-1.41 2 .22-.53.43-1.08.65-1.58.81-1.88 1.67-3.55 2.44-5 .44-.84.86-1.58 1.26-2.28.93-.19 4.68-1 6.19-2.06s3.06-2.8 3.11-4.71a3.21 3.21 0 0 0-3.34-3.41c-2.71.2-5.2 4.41-5.77 6.76 0 .2-.45 3.47-.41 3.46h.06q-.6 1-1.26 2.16c-.8 1.47-1.7 3.13-2.55 5a57 57 0 0 0-2.47 6.17 42.7 42.7 0 0 0-1.75 7.23.28.28 0 0 1 0 .09c-.13-.78-.56-3-.61-3.13-.74-2.3-3.52-6.32-6.23-6.33a3.22 3.22 0 0 0-3.1 3.63c.19 1.91 1.9 3.54 3.44 4.48 1.74 1.06 6.13 1.6 6.47 1.64a58.63 58.63 0 0 0-.43 7.56c0 1.48.06 3 .13 4.45-.13-.68-.26-1.28-.28-1.36-.74-2.31-3.52-6.33-6.23-6.33a3.21 3.21 0 0 0-3.1 3.63c.19 1.9 1.89 3.53 3.44 4.47s5.29 1.49 6.28 1.62c0 .57.06 1.14.1 1.71.16 2.73.34 5.46.44 8.14v2.81c-.12-.6-.22-1.1-.25-1.18-.73-2.3-3.51-6.32-6.22-6.33a3.22 3.22 0 0 0-3.1 3.63c.19 1.91 1.89 3.54 3.43 4.48s4.94 1.43 6.11 1.59c0 1-.05 1.91-.12 2.84-.06.63-.08 1.24-.17 1.87s-.17 1.24-.25 1.85c-.2 1.18-.4 2.39-.62 3.53-.15.79-.31 1.55-.46 2.31 0-.94-.11-2.78-.13-2.94-.38-2.39-2.52-6.78-5.2-7.2a3.21 3.21 0 0 0-3.61 3.12c-.1 1.91 1.33 3.78 2.72 4.94s5.6 2.46 6.11 2.6c-.26 1.25-.53 2.48-.8 3.62-.35 1.51-.7 2.91-1 4.2.39.34.88.77 1.45 1.25q.56-2.3 1.16-5.1c.27-1.27.54-2.64.79-4.05a33.4 33.4 0 0 0 4.1-.15c.68 1.93 3.26 4.95 3.59 5.33-.91.91-1.8 1.78-2.66 2.58-1.48 1.4-2.86 2.65-4.1 3.74.44.35.91.71 1.39 1.07 1.16-1.08 2.45-2.29 3.82-3.65.93-.91 1.91-1.91 2.9-2.94.43.3 3.93 2.72 5.89 3.08 1.78.32 4.13.25 5.54-1.05a3.2 3.2 0 0 0 .12-4.77c-2-1.8-6.78-.66-8.86.57-.13.07-1.37 1-2.15 1.6l1.21-1.27c.81-.86 1.6-1.75 2.46-2.71l1.19-1.43c.41-.48.79-1 1.19-1.54.89-1.21 1.74-2.48 2.57-3.78.76.71 3.5 3.2 5.22 3.8s4.05.87 5.64-.19a3.21 3.21 0 0 0 .83-4.7c-1.72-2.09-6.6-1.68-8.84-.79-.14.06-1.69.88-2.52 1.35.49-.79 1-1.57 1.46-2.38 1.36-2.34 2.67-4.75 4-7.15.4-.73.81-1.46 1.22-2.19.27.26 3.46 3.29 5.38 4 1.71.59 4 .87 5.64-.19a3.21 3.21 0 0 0 .83-4.7c-1.72-2.09-6.59-1.69-8.84-.79-.17.07-2.39 1.26-2.94 1.59.9-1.61 1.81-3.2 2.77-4.74a57.54 57.54 0 0 1 4.25-6c.13.12 3.44 3.3 5.41 4 1.71.59 4 .87 5.64-.19a3.21 3.21 0 0 0 .83-4.7c-1.72-2.09-6.59-1.68-8.84-.79-.18.07-2.56 1.35-3 1.61.09-.1.17-.23.27-.34a42 42 0 0 1 5.26-5.11c1.05-.87 2.09-1.64 3.12-2.36.56.65 3.13 3.62 4.84 4.43s3.93 1.31 5.62.43A3.2 3.2 0 0 0 482 299c-1.49-2.26-6.37-2.39-8.71-1.75-.12 0-1.37.53-2.28.91.47-.32 1-.66 1.41-1 1.71-1.12 3.35-2.05 4.81-2.85.83-.46 1.59-.85 2.31-1.21.88.36 4.45 1.76 6.31 1.7s4.09-.65 5.19-2.22a3.21 3.21 0 0 0-.9-4.65Z" style="fill:#263238"/>
  <path d="M426.47 278.32c1.46 1.55 5.88 3.32 5.88 3.32s.28-3.26.27-3.47c-.1-2.42-1.72-7-4.33-7.76a3.2 3.2 0 0 0-3.94 2.69c-.35 1.9.89 3.9 2.12 5.22ZM295.2 406.34s-2.55 3.21-2.69 3.44c-1.56 2.59-3.06 8.53-.83 11.09a4 4 0 0 0 6-.08c1.64-1.75 1.77-4.7 1.38-6.93-.47-2.62-3.86-7.52-3.86-7.52Z" style="fill:#263238"/>
  <path d="M270.37 419.2c3 1.66 8.46-1 10.69-3.08.19-.18 2.87-3.31 2.81-3.33h-.06c.87-.41 1.8-.87 2.8-1.39 1.86-1 3.94-2.08 6.12-3.45a70.75 70.75 0 0 0 6.84-4.74 53.55 53.55 0 0 0 6.82-6.34l.07-.09c-.4.91-1.46 3.48-1.52 3.69-.82 2.92-.7 9 2.13 10.91a4 4 0 0 0 5.74-1.65c1.12-2.12.47-5-.49-7-1.08-2.31-5.29-5.91-5.63-6.19a72.24 72.24 0 0 0 5.68-7.6c1-1.54 2-3.13 2.93-4.73-.32.8-.61 1.51-.64 1.62-.82 2.91-.7 9 2.13 10.91a4 4 0 0 0 5.74-1.65c1.12-2.12.47-5-.49-7s-4.51-5.21-5.45-6l1.08-1.85c1.71-3 3.41-5.94 5.16-8.81.62-1 1.27-2 1.91-2.95-.29.7-.53 1.3-.56 1.4-.82 2.91-.7 9 2.13 10.91a4 4 0 0 0 5.74-1.65c1.12-2.12.47-5-.49-7.05s-4.16-4.9-5.28-5.88c.69-1 1.38-2 2.09-2.88.49-.61.93-1.24 1.47-1.83l1.54-1.77c1-1.08 2.06-2.21 3.08-3.25.71-.73 1.39-1.4 2.08-2.09-.63 1-1.81 3-1.89 3.15a15.71 15.71 0 0 0-1.06 7.8 4.94 4.94 0 0 0-.3.84 4 4 0 0 0 3.18 5.06c3.36.49 7.53-4 8.86-6.71.08-.16.74-2 1.14-3.16-.13.72-.27 1.42-.39 2.16-.25 1.47-.46 2.94-.69 4.53-.09.76-.18 1.54-.26 2.33s-.12 1.6-.18 2.42c-.1 1.88-.11 3.8-.07 5.73-1.29-.22-5.87-.94-8.07-.37s-4.83 1.88-5.76 4.09a4 4 0 0 0 2.37 5.49c3.25 1 8.05-2.8 9.78-5.29.11-.16 1.15-2.08 1.7-3.15 0 1.16.05 2.32.12 3.49.19 3.38.49 6.81.78 10.22.09 1 .16 2.09.24 3.13-.46-.08-5.88-1.05-8.35-.42-2.19.56-4.83 1.89-5.76 4.1a4 4 0 0 0 2.38 5.48c3.24 1 8.05-2.8 9.78-5.29.13-.18 1.62-3 2-3.68.18 2.3.33 4.59.38 6.86a69.23 69.23 0 0 1-.31 9.16c-.21 0-5.87-1.07-8.4-.42-2.19.56-4.83 1.88-5.75 4.09a4 4 0 0 0 2.37 5.49c3.24 1 8.05-2.8 9.78-5.29.13-.2 1.74-3.18 2-3.74v.53a52.2 52.2 0 0 1-2 9c-.49 1.63-1.05 3.15-1.62 4.62-1-.3-5.78-1.62-8.12-1.29s-5 1.35-6.17 3.44a4 4 0 0 0 1.76 5.71c3.12 1.34 8.31-1.9 10.3-4.18.11-.12 1.07-1.51 1.76-2.53-.27.66-.54 1.35-.81 2-1 2.35-2.09 4.45-3.05 6.3-.56 1.05-1.09 2-1.58 2.85-1.17.24-5.87 1.24-7.76 2.59s-3.82 3.5-3.89 5.89a4 4 0 0 0 4.19 4.26c3.38-.24 6.5-5.51 7.21-8.46.07-.25.58-4.34.51-4.33h-.07c.5-.82 1-1.72 1.58-2.7 1-1.84 2.13-3.91 3.2-6.26a70.71 70.71 0 0 0 3.08-7.73 51.63 51.63 0 0 0 2.2-9 .45.45 0 0 1 0-.11c.16 1 .7 3.71.77 3.92.92 2.88 4.4 7.92 7.79 7.93a4 4 0 0 0 3.88-4.55c-.24-2.38-2.37-4.42-4.3-5.61-2.18-1.33-7.67-2-8.11-2.05a70.07 70.07 0 0 0 .54-9.47c0-1.84-.07-3.7-.15-5.56.16.84.32 1.6.35 1.7.92 2.89 4.4 7.92 7.79 7.93a4 4 0 0 0 3.88-4.55c-.23-2.38-2.37-4.42-4.3-5.6s-6.63-1.87-7.87-2c0-.71-.07-1.42-.11-2.14-.22-3.42-.44-6.84-.56-10.19v-3.52c.15.75.28 1.38.31 1.47.92 2.89 4.4 7.93 7.79 7.93a4 4 0 0 0 3.88-4.54c-.23-2.39-2.37-4.43-4.3-5.61s-6.17-1.79-7.64-2c0-1.2.06-2.39.15-3.55.08-.79.09-1.55.22-2.34s.2-1.56.3-2.32c.25-1.47.5-3 .78-4.42.19-1 .39-1.94.58-2.89 0 1.18.13 3.48.17 3.67.47 3 3.14 8.5 6.5 9a4 4 0 0 0 4.52-3.9c.13-2.4-1.67-4.73-3.4-6.19-1.9-1.61-7-3.07-7.66-3.25.33-1.57.67-3.1 1-4.54.44-1.88.88-3.64 1.3-5.25-.49-.44-1.1-1-1.81-1.57q-.7 2.88-1.46 6.38c-.34 1.6-.67 3.31-1 5.08a44 44 0 0 0-5.13.18c-.85-2.41-4.08-6.19-4.5-6.67 1.14-1.13 2.26-2.22 3.34-3.23 1.85-1.75 3.57-3.31 5.13-4.68-.56-.44-1.14-.89-1.74-1.34-1.46 1.35-3.07 2.87-4.79 4.57-1.16 1.14-2.38 2.39-3.63 3.68-.53-.37-4.92-3.4-7.37-3.85-2.23-.41-5.17-.31-6.94 1.3a4 4 0 0 0-.14 6c2.53 2.26 8.48.83 11.09-.71.15-.09 1.72-1.26 2.69-2-.5.53-1 1-1.51 1.59-1 1.08-2 2.2-3.08 3.39l-1.5 1.8c-.51.59-1 1.28-1.48 1.93-1.12 1.51-2.19 3.1-3.23 4.73-1-.89-4.38-4-6.52-4.76s-5.07-1.09-7.06.24a4 4 0 0 0-1 5.89c2.16 2.61 8.26 2.1 11.07 1 .18-.07 2.11-1.1 3.16-1.69-.62 1-1.24 2-1.83 3-1.71 2.93-3.34 5.94-5 8.95-.5.92-1 1.83-1.52 2.74-.34-.32-4.33-4.12-6.74-4.95-2.14-.74-5.07-1.09-7.06.24a4 4 0 0 0-1 5.88c2.16 2.62 8.26 2.11 11.07 1 .21-.09 3-1.58 3.67-2-1.12 2-2.26 4-3.46 5.93a73 73 0 0 1-5.32 7.47c-.16-.15-4.31-4.13-6.77-5-2.14-.74-5.07-1.09-7.06.24a4 4 0 0 0-1 5.89c2.16 2.61 8.26 2.1 11.08 1 .22-.09 3.2-1.69 3.72-2-.11.14-.21.29-.33.43a52.74 52.74 0 0 1-6.59 6.4c-1.31 1.08-2.61 2.05-3.91 3-.69-.83-3.92-4.54-6.05-5.56s-4.92-1.64-7-.53a4 4 0 0 0-1.69 5.73c1.86 2.84 8 3 10.9 2.19.16 0 1.72-.66 2.86-1.14-.59.41-1.19.83-1.77 1.21-2.14 1.4-4.19 2.56-6 3.57-1 .56-2 1.06-2.89 1.51-1.11-.45-5.58-2.21-7.89-2.13s-5.13.81-6.5 2.77a4 4 0 0 0 .88 5.5Z" style="fill:#263238"/>
  <path d="M350.08 431.23c-1.82-1.94-7.35-4.16-7.35-4.16s-.36 4.09-.35 4.35c.13 3 2.15 8.8 5.42 9.71a4 4 0 0 0 4.94-3.36c.41-2.37-1.11-4.9-2.66-6.54Z" style="fill:#263238"/>
  <path d="M74.53 101.25H433.2v288.19H74.53z" style="fill:#fff;stroke:#263238;stroke-linejoin:round"/>
  <path d="M386.53 352.47h-44.74a4.4 4.4 0 0 1-4.4-4.4V296.8m77.34-50.51v101.78a4.41 4.41 0 0 1-4.41 4.4h-19.4m-53.53-59.12v-77.68a4.39 4.39 0 0 1 4.4-4.39h68.53a4.4 4.4 0 0 1 4.41 4.39v27.8" style="fill:#fff;stroke:#263238;stroke-linejoin:round"/>
  <path d="M414.73 215.67v23.73h-77.34v-23.73a4.39 4.39 0 0 1 4.4-4.39h68.53a4.4 4.4 0 0 1 4.41 4.39ZM74.53 101.25H433.2v97.58H74.53z" style="fill:#fff;stroke:#263238;stroke-linejoin:round"/>
  <circle cx="404.44" cy="167.46" r="8.45" style="fill:#d9d9d9;stroke:#263238;stroke-linejoin:round" transform="rotate(-13.85 404.546157 167.481557)"/>
  <circle cx="379.02" cy="162.82" r="1.13" style="fill:#263238"/>
  <path d="M384.57 162.82a1.13 1.13 0 1 0-1.13 1.13 1.14 1.14 0 0 0 1.13-1.13Zm4.43 0a1.13 1.13 0 1 0-1.13 1.13 1.14 1.14 0 0 0 1.13-1.13Zm-8.86 4.6a1.13 1.13 0 1 0-1.12 1.13 1.13 1.13 0 0 0 1.12-1.13Zm4.43 0a1.13 1.13 0 1 0-1.13 1.13 1.14 1.14 0 0 0 1.13-1.13Zm4.43 0a1.13 1.13 0 1 0-1.13 1.13 1.14 1.14 0 0 0 1.13-1.13Zm-8.86 4.58a1.13 1.13 0 1 0-1.12 1.13 1.13 1.13 0 0 0 1.12-1.13Zm4.43 0a1.13 1.13 0 1 0-1.13 1.13 1.14 1.14 0 0 0 1.13-1.13Zm4.43 0a1.13 1.13 0 1 0-1.13 1.13A1.14 1.14 0 0 0 389 172Z" style="fill:#263238"/>
  <path d="M325.88 170.83a12.78 12.78 0 0 1-12.16 8.85H197.38M223 154.15h90.75a12.76 12.76 0 0 1 12.77 12.76M191 179.68h-60.59a12.76 12.76 0 0 1-12.76-12.77 12.76 12.76 0 0 1 12.76-12.76h88.13" style="fill:#fff;stroke:#263238;stroke-linejoin:round"/>
  <path d="M294.29 160.04v11.94" style="fill:none;stroke:#263238;stroke-linejoin:round;stroke-width:.5px"/>
  <path d="M131 170.19h-1.21l-1.09-7.93h.86l.93 6.75.89-6.74h.87l.87 6.75.9-6.76h.77l-1.08 7.93h-1.21l-.75-5.38Zm7.29-4.42v.8h-1.94v2.82h2.38v.8h-3.26v-7.93h3.26v.8h-2.38v2.71Zm3.04-3.51c1.23 0 1.72.59 1.72 1.76v.37c0 .84-.24 1.36-.93 1.58.77.21 1.06.82 1.06 1.69v.67a1.63 1.63 0 0 1-1.81 1.86h-1.82v-7.93Zm-.22 3.37c.7 0 1.07-.23 1.07-1.06v-.46c0-.71-.24-1.05-.88-1.05h-.87v2.57Zm.26 3.76c.65 0 .94-.34.94-1.08v-.7c0-.89-.35-1.18-1.11-1.18h-.77v3Zm7.81-5.23v.22h-.84v-.26c0-.72-.27-1.14-.9-1.14s-.91.42-.91 1.13c0 1.78 2.66 1.95 2.66 4.18 0 1.2-.58 2-1.79 2s-1.78-.78-1.78-2v-.46h.83v.5c0 .72.29 1.14.93 1.14s.93-.42.93-1.14c0-1.76-2.65-1.93-2.65-4.17 0-1.22.56-2 1.75-2s1.77.84 1.77 2Zm3.61 1.61v.8h-1.94v2.82h2.38v.8H150v-7.93h3.27v.8h-2.38v2.71Zm2.15 2.82-.3 1.6h-.82l1.52-7.93h1.28l1.52 7.93h-.89l-.3-1.6Zm.11-.76h1.77l-.89-4.57Zm5.55-5.57c1.24 0 1.76.63 1.76 1.81v.65c0 .87-.3 1.42-1 1.63.72.22 1 .8 1 1.65v1.24a2.07 2.07 0 0 0 .15.95h-.89a2.1 2.1 0 0 1-.15-1V168c0-.89-.42-1.18-1.15-1.18h-.63v3.39h-.88v-7.93Zm-.23 3.74c.7 0 1.12-.23 1.12-1.09v-.76c0-.71-.26-1.09-.92-1.09h-.86V166Zm6.43-1.83v.72h-.8v-.76c0-.71-.28-1.15-.93-1.15s-.93.44-.93 1.15v4.19c0 .72.3 1.15.93 1.15s.93-.43.93-1.15v-1h.84v1c0 1.2-.57 2-1.79 2s-1.78-.79-1.78-2v-4.11c0-1.2.56-2 1.78-2s1.75.79 1.75 1.96Zm1.69 2.45v3.57h-.89v-7.93h.89v3.57h1.95v-3.57h.88v7.93h-.88v-3.57Z" style="fill:#263238"/>
  <path d="M313.85 171.66a1 1 0 0 1-1.35.11l-4.59-4.18.87-1.05 4.92 3.77a1 1 0 0 1 .15 1.35Z" style="fill:#263238;stroke:#263238;stroke-linejoin:round"/>
  <path d="M302.06 161.87a4.33 4.33 0 1 0 6.1-.58 4.32 4.32 0 0 0-6.1.58Zm6.19 5.12a3.7 3.7 0 1 1-.49-5.22 3.7 3.7 0 0 1 .49 5.23Z" style="fill:#263238;stroke:#263238;stroke-linejoin:round"/>
  <path d="M422.25 101.25h10.94v288.19h-10.94z" style="fill:#d9d9d9;stroke:#263238;stroke-linejoin:round"/>
  <path d="M422.25 158.71h10.94v28.27h-10.94z" style="fill:#8f8f8f;stroke:#263238;stroke-linejoin:round"/>
  <path d="M74.53 101.25H433.2v33.74H74.53z" style="fill:#407bff;stroke:#263238;stroke-linejoin:round"/>
  <path d="M135.89 101.25H433.2v11.86H135.89z" style="fill:#263238;stroke:#263238;stroke-linejoin:round"/>
  <path d="M403.47 104.76h4.62v4.62h-4.62z" style="fill:#263238;stroke:#fff;stroke-linejoin:round"/>
  <path d="M401.25 105.87h4.62v4.62h-4.62z" style="fill:#263238;stroke:#fff;stroke-linejoin:round"/>
  <path d="M386.84 107.6h-7.99m-236.63-3.59v7.17m3.59-3.59h-7.17" style="fill:none;stroke:#fff;stroke-linejoin:round"/>
  <path d="M120.05 218.89h73.81m-73.81 6.45h93.73m-93.73 7.61h193.32m-193.32 7.03h193.32m-193.32 7.03h193.32m-193.32 16.41h73.81m-73.81 6.44h93.73m-93.73 7.62h193.32m-193.32 7.03h193.32m-193.32 7.03h193.32m-193.32 16.4h73.81m-73.81 6.45h93.73M120.05 322h193.32m-193.32 7.03h193.32m-193.32 7.03h193.32m-193.32 16.4h73.81m-73.81 6.45h93.73m-93.73 7.61h193.32m-193.32 7.03h193.32m-193.32 7.03h193.32m29.09-132.91h34.76m-34.76 4.67h34.76m-34.76 4.68h67.84m-67.84 4.68h67.84m-67.84 4.68h67.84m-67.84 4.68h67.84m-67.84 4.68h67.84m-67.84 4.68h67.84m-67.84 4.68h67.84m-67.84 4.68h67.84m-67.84 11.03h34.76m-34.76 4.67h34.76m-34.76 4.68h67.84m-67.84 4.68h67.84m-67.84 4.68h67.84m-67.84 4.68h67.84m-67.84 4.68h67.84m-67.84 4.68h67.84m-67.84 4.68h67.84m-67.84 4.68h67.84" style="fill:#fff;stroke:#263238;stroke-linejoin:round"/>
  <path d="M441.28 456.93h12.54m-338.56 0h317.66m-387.88 0h61.86" style="fill:none;stroke:#263238;stroke-linejoin:round"/>
</svg>
