<svg xmlns="http://www.w3.org/2000/svg" viewBox="0 0 500 500">
  <path d="M453.56 211.48s-61.1-149-172.8-177.82S122.21 92.88 105.1 153.92 24.91 295.76 30.63 351.27C36.08 404 82.31 429 125.49 439.68c54.88 13.61 117.25 14.64 172.34 3.3a358.52 358.52 0 0 0 38.73-10.49c25.88-8.44 51.29-15 77.5-22 49.88-13.3 69.64-66.87 64-118.13-3.16-28.82-13.73-54.63-24.5-80.88Z" style="fill:#407bff"/>
  <path d="M453.56 211.48s-61.1-149-172.8-177.82S122.21 92.88 105.1 153.92 24.91 295.76 30.63 351.27C36.08 404 82.31 429 125.49 439.68c54.88 13.61 117.25 14.64 172.34 3.3a358.52 358.52 0 0 0 38.73-10.49c25.88-8.44 51.29-15 77.5-22 49.88-13.3 69.64-66.87 64-118.13-3.16-28.82-13.73-54.63-24.5-80.88Z" style="fill:#fff;opacity:.7000000000000001"/>
  <path d="M48.65 220.72 67.1 397.46m-2.98-33.83-8.36-8.83" style="fill:none;stroke:#263238;stroke-miterlimit:10;stroke-width:2px"/>
  <path d="M58.3 357.45a9.45 9.45 0 0 0-3.3-7.09c-2.14-1.92-13.44-6.67-14.51-2.69-1.2 4.33 10.37 12.82 17.81 9.78Zm2.1 20.1a9.45 9.45 0 0 0-3.33-7.09c-2.14-1.92-13.44-6.67-14.51-2.69-1.17 4.32 10.44 12.82 17.84 9.78Zm-7.22-69.15a9.47 9.47 0 0 0-3.32-7.09c-2.15-1.92-13.45-6.67-14.52-2.69-1.16 4.38 10.4 12.82 17.84 9.78Zm2.1 20.1a9.46 9.46 0 0 0-3.28-7.09c-2.14-1.92-13.44-6.67-14.51-2.69-1.22 4.33 10.34 12.82 17.79 9.78Zm-5.5-52.75a9.5 9.5 0 0 0-3.33-7.09C44.3 266.74 33 262 31.93 266c-1.16 4.3 10.4 12.79 17.85 9.75ZM46.35 243a9.46 9.46 0 0 0-3.35-7.13c-2.15-1.92-13.45-6.67-14.52-2.69C27.35 237.5 38.91 246 46.35 243Zm20.79 101.49a9.48 9.48 0 0 1 1.79-7.63c1.7-2.32 11.77-9.3 13.64-5.63 2.04 3.99-7.52 14.7-15.43 13.26Zm-5.52-52.89a9.48 9.48 0 0 1 1.79-7.6c1.7-2.32 11.77-9.3 13.64-5.63 2.04 3.96-7.52 14.63-15.43 13.23Zm-2.43-23.25a9.48 9.48 0 0 1 1.81-7.63c1.71-2.31 11.78-9.3 13.65-5.63 2.01 4-7.55 14.7-15.46 13.26Zm-3.56-34.08a9.44 9.44 0 0 1 1.8-7.62c1.7-2.32 11.77-9.3 13.64-5.63 2.03 3.98-7.52 14.69-15.44 13.25Zm-7.13-14.53a9.48 9.48 0 0 1 1.79-7.63c1.7-2.31 11.77-9.3 13.64-5.62 2.07 3.99-7.52 14.69-15.43 13.25Z" style="fill:#407bff;stroke:#263238;stroke-miterlimit:10"/>
  <path d="M49.06 220.14a9.48 9.48 0 0 1-7.4-2.58c-2.13-1.94-8-12.69-4.17-14.16 4.19-1.61 13.83 9.02 11.57 16.74Z" style="fill:#407bff;stroke:#263238;stroke-miterlimit:10"/>
  <path d="M97.3 245.06 78.96 421.81m4.05-33.71-6.36-10.37" style="fill:none;stroke:#263238;stroke-miterlimit:10;stroke-width:2px"/>
  <path d="M78.59 380.85a9.46 9.46 0 0 0-1.8-7.63c-1.7-2.32-11.78-9.29-13.64-5.62-2.04 3.99 7.53 14.69 15.44 13.25Zm5.09-49.05a9.46 9.46 0 0 0-1.8-7.63c-1.7-2.32-11.78-9.29-13.64-5.62-2.04 3.99 7.53 14.69 15.44 13.25Zm-2.09 20.1a9.48 9.48 0 0 0-1.79-7.63C78.09 342 68 335 66.15 338.65c-2.03 3.99 7.53 14.69 15.44 13.25Zm5.48-52.76a9.44 9.44 0 0 0-1.8-7.62c-1.7-2.32-11.78-9.3-13.65-5.62-2.03 3.99 7.54 14.69 15.45 13.24Zm3.4-32.79a9.48 9.48 0 0 0-1.79-7.63C87 256.4 76.89 249.43 75 253.1c-2 3.99 7.56 14.69 15.47 13.25ZM89.9 370a9.45 9.45 0 0 1 3.33-7.09c2.14-1.92 13.44-6.68 14.51-2.7 1.17 4.3-10.39 12.79-17.84 9.79Zm5.49-52.91a9.48 9.48 0 0 1 3.33-7.1c2.14-1.92 13.43-6.68 14.51-2.7 1.17 4.33-10.39 12.83-17.84 9.8Zm2.42-23.25a9.42 9.42 0 0 1 3.32-7.09c2.14-1.92 13.44-6.68 14.51-2.7 1.17 4.32-10.39 12.83-17.83 9.79Zm3.53-34.08a9.45 9.45 0 0 1 3.33-7.09c2.14-1.92 13.43-6.68 14.51-2.7 1.17 4.32-10.39 12.83-17.84 9.79Zm-3.99-15.69a9.46 9.46 0 0 1 3.32-7.09c2.15-1.92 13.44-6.68 14.51-2.7 1.17 4.32-10.38 12.83-17.83 9.79Z" style="fill:#407bff;stroke:#263238;stroke-miterlimit:10"/>
  <path d="M97.82 244.58a9.48 9.48 0 0 1-6.71-4.05c-1.68-2.34-5.23-14.07-1.16-14.72 4.42-.71 11.67 11.68 7.87 18.77Z" style="fill:#407bff;stroke:#263238;stroke-miterlimit:10"/>
  <path d="M76.28 173.09V396.6m.18-33.61-7.4-9.65" style="fill:none;stroke:#263238;stroke-miterlimit:10;stroke-width:2px"/>
  <path d="M71.31 356.23a9.45 9.45 0 0 0-2.57-7.4c-1.94-2.12-12.68-8-14.16-4.18-1.58 4.18 9.01 13.84 16.73 11.58Zm0-42a9.45 9.45 0 0 0-2.57-7.4c-1.94-2.13-12.68-8-14.16-4.18-1.58 4.18 9.01 13.83 16.73 11.58Zm0-49.31a9.45 9.45 0 0 0-2.57-7.4c-1.94-2.13-12.68-8-14.16-4.18-1.58 4.18 9.01 13.83 16.73 11.58Zm0-32.83a9.45 9.45 0 0 0-2.57-7.4c-1.94-2.13-12.68-8-14.16-4.18-1.58 4.18 9.01 13.83 16.73 11.58Zm0-32.97a9.45 9.45 0 0 0-2.57-7.4c-1.94-2.13-12.68-8-14.16-4.18-1.58 4.18 9.01 13.83 16.73 11.58Zm10.13 169.94a9.48 9.48 0 0 1 2.58-7.4c1.93-2.13 12.67-8 14.15-4.18 1.61 4.18-9.01 13.83-16.73 11.58Zm0-66.8a9.48 9.48 0 0 1 2.58-7.4c1.93-2.13 12.67-8 14.15-4.18 1.61 4.18-9.01 13.83-16.73 11.58Zm0-32.97a9.48 9.48 0 0 1 2.58-7.4c1.93-2.13 12.67-8 14.15-4.19 1.61 4.19-9.01 13.84-16.73 11.59Zm0-43.58a9.48 9.48 0 0 1 2.58-7.4c1.93-2.13 12.67-8 14.15-4.19 1.61 4.19-9.01 13.88-16.73 11.59Zm0-34.26a9.47 9.47 0 0 1 2.58-7.4c1.93-2.13 12.67-8 14.15-4.19 1.61 4.19-9.01 13.84-16.73 11.59Zm-5.59-15.2a9.48 9.48 0 0 1 2.58-7.4c1.93-2.13 12.67-8 14.15-4.18 1.61 4.18-9.01 13.83-16.73 11.58Z" style="fill:#407bff;stroke:#263238;stroke-miterlimit:10"/>
  <path d="M76.37 176.71a9.48 9.48 0 0 1-7.09-3.34c-1.91-2.15-6.65-13.45-2.67-14.52 4.32-1.16 12.81 10.41 9.76 17.86Z" style="fill:#407bff;stroke:#263238;stroke-miterlimit:10"/>
  <path d="M85.48 454.56H61.81l-2.96-59.77h29.59l-2.96 59.77z" style="fill:#263238;stroke:#263238;stroke-miterlimit:10"/>
  <path d="M379.34 315.42a13.23 13.23 0 0 1 1.51-5.53c1.38-2.27 6.41-3.9 9.06-2.77a35.14 35.14 0 0 1 3.9 1.89 29.77 29.77 0 0 0-7.43 3.52 18.59 18.59 0 0 1-7.04 2.89Zm-5.29 1.64a13 13 0 0 0 3.53-6.92c.5-4-3.78 1.68-3.78 1.68s-2.14-8.1-3.39-3.57 3.64 8.81 3.64 8.81Zm-5.78-1.26s.75-3.77-.63-6.41-5-2.39-8.68-1.26a20.55 20.55 0 0 1-4.78 1.13 54.18 54.18 0 0 0 7.92 4.4 49.08 49.08 0 0 0 6.17 2.14Z" style="fill:#407bff"/>
  <path d="M374 329.36a.33.33 0 0 0 .33-.33V311a.32.32 0 0 0-.33-.32.32.32 0 0 0-.32.32v18a.32.32 0 0 0 .32.36Zm-1.49 0h.05a.33.33 0 0 0 .27-.37c-.06-.45-1.58-11.11-6.74-17a.33.33 0 0 0-.46 0 .32.32 0 0 0 0 .46c5 5.77 6.57 16.58 6.59 16.69a.32.32 0 0 0 .29.22Zm3.02-.25a.34.34 0 0 0 .33-.33c0-.11-.05-10.35 6-15.22a.33.33 0 1 0-.41-.51c-6.34 5.08-6.29 15.3-6.29 15.74a.34.34 0 0 0 .37.32Zm-5.03-.11h.08a.32.32 0 0 0 .23-.4 20.86 20.86 0 0 0-2.94-6.14.33.33 0 0 0-.46-.08.34.34 0 0 0-.07.46 20.25 20.25 0 0 1 2.84 5.93.32.32 0 0 0 .32.23Z" style="fill:#263238"/>
  <path d="M368.52 324s.12-3.52-1.39-4-2.89.76-4 1.51-2.39 1.51-2.39 3.78a42.4 42.4 0 0 0 .88 6.41s1.26-3.9 3.4-5.66a8.8 8.8 0 0 1 3.5-2.04Z" style="fill:#407bff"/>
  <path d="M377.8 329.11a.34.34 0 0 0 .31-.23 11.39 11.39 0 0 1 3.28-4.87.33.33 0 1 0-.4-.52 12 12 0 0 0-3.5 5.19.32.32 0 0 0 .21.41Z" style="fill:#263238"/>
  <path d="M379.34 325.11a5.2 5.2 0 0 1 .75-3.9c1.26-1.63 4.28-1.26 5.79.5s3.65 7.05 3.65 7.05a12 12 0 0 0-6.54-2.39c-3.53 0-3.65-1.26-3.65-1.26Z" style="fill:#407bff"/>
  <path d="M369.31 348.39h10.04l5.02-16.6h-20.08l5.02 16.6z" style="fill:#263238;stroke:#263238;stroke-linecap:round;stroke-linejoin:round"/>
  <path d="M364.24 329.03h20.19v2.75h-20.19z" style="fill:#263238;stroke:#263238;stroke-linecap:round;stroke-linejoin:round" transform="rotate(180 374.335 330.41)"/>
  <path d="M382.26 279.49a.94.94 0 0 1-.7-1.28l.05-.13a.94.94 0 0 1 1.3-.57 11.1 11.1 0 0 1 2.31 1.22 11 11 0 0 1-.44-2.66 1 1 0 0 1 1-1.06h.14a1 1 0 0 1 1 1.06 11.45 11.45 0 0 1-.43 2.66 12.14 12.14 0 0 1 2.3-1.22.93.93 0 0 1 1.3.59v.09a.93.93 0 0 1-.68 1.3 11.36 11.36 0 0 1-2.57.38 10.86 10.86 0 0 1 1.92 1.81 1 1 0 0 1-.16 1.41l-.11.09a.94.94 0 0 1-1.44-.28 12.13 12.13 0 0 1-1.19-2.35 13.26 13.26 0 0 1-1.22 2.35.94.94 0 0 1-1.44.28l-.1-.09a1 1 0 0 1-.17-1.41 12.72 12.72 0 0 1 1.93-1.84 10.25 10.25 0 0 1-2.6-.35Zm10.14 0a.94.94 0 0 1-.7-1.28l.05-.13a.94.94 0 0 1 1.3-.57 11.1 11.1 0 0 1 2.31 1.22 11 11 0 0 1-.44-2.66 1 1 0 0 1 1-1.06h.08a1 1 0 0 1 1 1.06 11.45 11.45 0 0 1-.43 2.66 12.14 12.14 0 0 1 2.3-1.22 1 1 0 0 1 1.31.59v.09a.93.93 0 0 1-.68 1.3 11.36 11.36 0 0 1-2.57.38 10.86 10.86 0 0 1 1.92 1.81 1 1 0 0 1-.16 1.41l-.11.09a.93.93 0 0 1-1.43-.28 11.57 11.57 0 0 1-1.2-2.35 13.26 13.26 0 0 1-1.22 2.35.94.94 0 0 1-1.44.28l-.1-.09a1 1 0 0 1-.17-1.41 12.72 12.72 0 0 1 1.93-1.84 10.25 10.25 0 0 1-2.55-.35Zm10.14 0a1 1 0 0 1-.7-1.28l.05-.13a.94.94 0 0 1 1.3-.57 11.1 11.1 0 0 1 2.31 1.22 11 11 0 0 1-.43-2.66 1 1 0 0 1 1-1.06h.14a1 1 0 0 1 1 1.06 11.45 11.45 0 0 1-.43 2.66 12.14 12.14 0 0 1 2.3-1.22 1 1 0 0 1 1.31.59v.09a.93.93 0 0 1-.67 1.3 11.54 11.54 0 0 1-2.58.38 10.86 10.86 0 0 1 1.92 1.81 1 1 0 0 1-.16 1.41l-.11.09a.93.93 0 0 1-1.43-.28 12.1 12.1 0 0 1-1.2-2.35 13.26 13.26 0 0 1-1.22 2.35.93.93 0 0 1-1.43.28l-.11-.09a1 1 0 0 1-.17-1.41 12.72 12.72 0 0 1 1.93-1.84 10.25 10.25 0 0 1-2.62-.35Zm10.14 0a1 1 0 0 1-.7-1.28v-.13a.94.94 0 0 1 1.3-.57 11.1 11.1 0 0 1 2.31 1.22 11.45 11.45 0 0 1-.43-2.66 1 1 0 0 1 1-1.06h.14a1 1 0 0 1 1 1.06 11.45 11.45 0 0 1-.43 2.66 12.14 12.14 0 0 1 2.3-1.22 1 1 0 0 1 1.31.59v.09a.93.93 0 0 1-.67 1.3 11.54 11.54 0 0 1-2.58.38 10.86 10.86 0 0 1 1.92 1.81 1 1 0 0 1-.16 1.41l-.11.09a.93.93 0 0 1-1.43-.28 12.1 12.1 0 0 1-1.2-2.35 13.26 13.26 0 0 1-1.25 2.35.93.93 0 0 1-1.43.28l-.11-.09a1 1 0 0 1-.17-1.41 12.72 12.72 0 0 1 1.93-1.84 10.25 10.25 0 0 1-2.54-.35Zm10.14 0a1 1 0 0 1-.7-1.28l.05-.13a1 1 0 0 1 1.31-.57 11.3 11.3 0 0 1 2.3 1.22 11.45 11.45 0 0 1-.43-2.66 1 1 0 0 1 1-1.06h.14a1 1 0 0 1 1 1.06 11.45 11.45 0 0 1-.43 2.66 12.14 12.14 0 0 1 2.3-1.22 1 1 0 0 1 1.31.59v.09a.93.93 0 0 1-.67 1.3 11.54 11.54 0 0 1-2.58.38 10.86 10.86 0 0 1 1.92 1.81 1 1 0 0 1-.16 1.41l-.11.09a.93.93 0 0 1-1.43-.28 12.1 12.1 0 0 1-1.2-2.35 13.26 13.26 0 0 1-1.22 2.35.93.93 0 0 1-1.43.28l-.11-.09a.94.94 0 0 1-.16-1.41 12.16 12.16 0 0 1 1.92-1.84 10.25 10.25 0 0 1-2.62-.35Zm10.18 0a1 1 0 0 1-.7-1.28l.05-.13a1 1 0 0 1 1.31-.57 11.3 11.3 0 0 1 2.3 1.22 11.45 11.45 0 0 1-.43-2.66 1 1 0 0 1 1-1.06h.14a1 1 0 0 1 1 1.06 11.45 11.45 0 0 1-.43 2.66 11.9 11.9 0 0 1 2.31-1.22.94.94 0 0 1 1.3.59v.09a.93.93 0 0 1-.67 1.3 11.45 11.45 0 0 1-2.58.38 11.31 11.31 0 0 1 1.93 1.81 1 1 0 0 1-.17 1.41l-.11.09a.93.93 0 0 1-1.43-.28 12.1 12.1 0 0 1-1.2-2.35 13.26 13.26 0 0 1-1.22 2.35.93.93 0 0 1-1.43.28l-.11-.09a.94.94 0 0 1-.16-1.41 12.16 12.16 0 0 1 1.92-1.84 10.25 10.25 0 0 1-2.62-.35Zm10.11 0a1 1 0 0 1-.71-1.28l.05-.13a1 1 0 0 1 1.31-.57 11.3 11.3 0 0 1 2.3 1.22 11.45 11.45 0 0 1-.43-2.66 1 1 0 0 1 1-1.06h.14a1 1 0 0 1 1 1.06 11 11 0 0 1-.44 2.66 11.9 11.9 0 0 1 2.31-1.22.94.94 0 0 1 1.3.59v.09a.93.93 0 0 1-.68 1.3 11.45 11.45 0 0 1-2.58.38 11.31 11.31 0 0 1 1.93 1.81 1 1 0 0 1-.17 1.41l-.1.09a.94.94 0 0 1-1.44-.28 11.59 11.59 0 0 1-1.19-2.35 13.22 13.22 0 0 1-1.23 2.35.93.93 0 0 1-1.43.28l-.11-.09a.94.94 0 0 1-.16-1.41 12.16 12.16 0 0 1 1.92-1.84 10.1 10.1 0 0 1-2.59-.35Zm10.14 0a1 1 0 0 1-.71-1.28v-.13a1 1 0 0 1 1.31-.57 11.3 11.3 0 0 1 2.3 1.22 11.45 11.45 0 0 1-.43-2.66 1 1 0 0 1 1-1.06h.14a1 1 0 0 1 1 1.06 11 11 0 0 1-.44 2.66 11.9 11.9 0 0 1 2.31-1.22.94.94 0 0 1 1.3.59v.09a.93.93 0 0 1-.68 1.3 11.45 11.45 0 0 1-2.58.38 11.31 11.31 0 0 1 1.93 1.81 1 1 0 0 1-.17 1.41l-.11.09a.93.93 0 0 1-1.43-.28 11.59 11.59 0 0 1-1.19-2.35 13.22 13.22 0 0 1-1.23 2.35.93.93 0 0 1-1.43.28l-.11-.09a.94.94 0 0 1-.16-1.41 12.16 12.16 0 0 1 1.92-1.84 10.1 10.1 0 0 1-2.54-.35ZM182.79 55a.94.94 0 0 1-.71-1.27l.06-.14a.94.94 0 0 1 1.3-.57 11.83 11.83 0 0 1 2.3 1.22 11.45 11.45 0 0 1-.43-2.66.94.94 0 0 1 1-1.05h.13a1 1 0 0 1 1 1.05 11 11 0 0 1-.44 2.66 12.47 12.47 0 0 1 2.27-1.24.94.94 0 0 1 1.3.6v.08a.93.93 0 0 1-.68 1.3 11.36 11.36 0 0 1-2.58.38 11 11 0 0 1 1.93 1.82 1 1 0 0 1-.16 1.41l-.11.08a1 1 0 0 1-1.44-.27 12 12 0 0 1-1.16-2.4 13.76 13.76 0 0 1-1.22 2.36 1 1 0 0 1-1.44.27l-.11-.08a1 1 0 0 1-.16-1.41 12.18 12.18 0 0 1 1.92-1.85 10.17 10.17 0 0 1-2.57-.29Zm10.14 0a.94.94 0 0 1-.71-1.27l.06-.14a.94.94 0 0 1 1.3-.57 11.55 11.55 0 0 1 2.3 1.22 11.45 11.45 0 0 1-.43-2.66.94.94 0 0 1 1-1.05h.13a.94.94 0 0 1 1 1.05 11 11 0 0 1-.44 2.66 12.47 12.47 0 0 1 2.27-1.24.94.94 0 0 1 1.3.6v.08a.93.93 0 0 1-.68 1.3 11.36 11.36 0 0 1-2.58.38 11 11 0 0 1 1.93 1.82 1 1 0 0 1-.16 1.41l-.11.08a1 1 0 0 1-1.44-.27 12 12 0 0 1-1.16-2.4 13.76 13.76 0 0 1-1.22 2.36 1 1 0 0 1-1.44.27l-.11-.08a1 1 0 0 1-.16-1.41 12.63 12.63 0 0 1 1.92-1.85 10.17 10.17 0 0 1-2.57-.29Zm10.14 0a.94.94 0 0 1-.71-1.27l.06-.14a.94.94 0 0 1 1.3-.57 11.55 11.55 0 0 1 2.3 1.22 11.45 11.45 0 0 1-.43-2.66.94.94 0 0 1 1-1.05h.13a.94.94 0 0 1 1 1.05 11 11 0 0 1-.44 2.66 12.47 12.47 0 0 1 2.27-1.24.94.94 0 0 1 1.3.6v.08a.93.93 0 0 1-.68 1.3 11.36 11.36 0 0 1-2.58.38 11 11 0 0 1 1.93 1.82 1 1 0 0 1-.16 1.41l-.11.08a1 1 0 0 1-1.44-.27 12 12 0 0 1-1.16-2.4 13.76 13.76 0 0 1-1.22 2.36 1 1 0 0 1-1.44.27l-.11-.08a1 1 0 0 1-.16-1.41 12.63 12.63 0 0 1 1.92-1.85 10.17 10.17 0 0 1-2.57-.29Zm10.14 0a.94.94 0 0 1-.71-1.27l.06-.14a.94.94 0 0 1 1.3-.57 11.55 11.55 0 0 1 2.3 1.22 11.45 11.45 0 0 1-.43-2.66.94.94 0 0 1 1-1.05h.13a.94.94 0 0 1 1 1.05 11 11 0 0 1-.44 2.66 12.47 12.47 0 0 1 2.27-1.24.94.94 0 0 1 1.3.6v.08a.93.93 0 0 1-.68 1.3 11.36 11.36 0 0 1-2.58.38 11 11 0 0 1 1.93 1.82 1 1 0 0 1-.16 1.41l-.11.08a1 1 0 0 1-1.39-.27 12 12 0 0 1-1.21-2.4 13.76 13.76 0 0 1-1.22 2.36 1 1 0 0 1-1.44.27l-.11-.08a1 1 0 0 1-.16-1.41 12.63 12.63 0 0 1 1.92-1.85 10.17 10.17 0 0 1-2.57-.29Zm10.14 0a.94.94 0 0 1-.71-1.27l.06-.14A.94.94 0 0 1 224 53a11.55 11.55 0 0 1 2.3 1.22 11.45 11.45 0 0 1-.43-2.66.94.94 0 0 1 1-1.05h.13a.94.94 0 0 1 1 1.05 11.45 11.45 0 0 1-.43 2.66 12.12 12.12 0 0 1 2.3-1.22.94.94 0 0 1 1.3.6v.08a.93.93 0 0 1-.68 1.3 11.36 11.36 0 0 1-2.58.38 11 11 0 0 1 1.93 1.82 1 1 0 0 1-.16 1.41l-.11.08a1 1 0 0 1-1.44-.27 12 12 0 0 1-1.2-2.4 13.76 13.76 0 0 1-1.22 2.36 1 1 0 0 1-1.44.27l-.11-.08a1 1 0 0 1-.16-1.41 12.28 12.28 0 0 1 1.93-1.85 10.18 10.18 0 0 1-2.58-.29Zm10.14 0a1 1 0 0 1-.71-1.27l.06-.14a.94.94 0 0 1 1.3-.57 11.88 11.88 0 0 1 2.31 1.22 11 11 0 0 1-.44-2.66.94.94 0 0 1 1-1.05h.13a.94.94 0 0 1 1 1.05 11.45 11.45 0 0 1-.43 2.66A12.42 12.42 0 0 1 240 53a.94.94 0 0 1 1.3.6v.08a.93.93 0 0 1-.68 1.3 11.36 11.36 0 0 1-2.57.38 11.24 11.24 0 0 1 1.95 1.82 1 1 0 0 1-.16 1.41l-.11.08a1 1 0 0 1-1.44-.27 12 12 0 0 1-1.22-2.4 13.76 13.76 0 0 1-1.22 2.36 1 1 0 0 1-1.44.27l-.11-.08a1 1 0 0 1-.16-1.41 12.28 12.28 0 0 1 1.93-1.85 10.18 10.18 0 0 1-2.58-.29Zm10.14 0a.93.93 0 0 1-.7-1.27v-.14a.94.94 0 0 1 1.3-.57 11.88 11.88 0 0 1 2.31 1.22 11 11 0 0 1-.44-2.66 1 1 0 0 1 1-1.05h.13a.94.94 0 0 1 1 1.05 11.45 11.45 0 0 1-.43 2.66 12.42 12.42 0 0 1 2.3-1.22.94.94 0 0 1 1.3.6v.08a.93.93 0 0 1-.68 1.3 11.36 11.36 0 0 1-2.57.38 11.24 11.24 0 0 1 1.92 1.82 1 1 0 0 1-.16 1.41l-.11.08a1 1 0 0 1-1.44-.27 12 12 0 0 1-1.15-2.42 13.76 13.76 0 0 1-1.21 2.4 1 1 0 0 1-1.44.27l-.11-.08a1 1 0 0 1-.16-1.41 12.28 12.28 0 0 1 1.93-1.85 10.18 10.18 0 0 1-2.59-.33Zm10.14 0a.93.93 0 0 1-.7-1.27l.05-.14a.94.94 0 0 1 1.3-.57 11.88 11.88 0 0 1 2.31 1.22 11 11 0 0 1-.44-2.66.94.94 0 0 1 1-1.05h.13a.94.94 0 0 1 1 1.05 11.45 11.45 0 0 1-.43 2.66 12.42 12.42 0 0 1 2.3-1.22.94.94 0 0 1 1.3.6v.08a.93.93 0 0 1-.68 1.3 11.36 11.36 0 0 1-2.57.38 11.24 11.24 0 0 1 1.92 1.82 1 1 0 0 1-.16 1.41l-.11.08a1 1 0 0 1-1.44-.27 12 12 0 0 1-1.2-2.42 13.76 13.76 0 0 1-1.22 2.36 1 1 0 0 1-1.44.27l-.11-.08a1 1 0 0 1-.16-1.41 12.28 12.28 0 0 1 1.93-1.85 10.18 10.18 0 0 1-2.58-.29Zm13.9 316.58a.94.94 0 0 1-.71-1.27l.05-.14a1 1 0 0 1 1.31-.57 11.83 11.83 0 0 1 2.3 1.22 11.46 11.46 0 0 1-.43-2.65.94.94 0 0 1 1-1.06h.14a1 1 0 0 1 1 1.06 11 11 0 0 1-.44 2.65 12.47 12.47 0 0 1 2.31-1.22.94.94 0 0 1 1.3.6v.08a.92.92 0 0 1-.68 1.3 10.91 10.91 0 0 1-2.58.38 11.75 11.75 0 0 1 1.93 1.82 1 1 0 0 1-.17 1.41l-.1.08a1 1 0 0 1-1.44-.27 11.7 11.7 0 0 1-1.19-2.36A13.35 13.35 0 0 1 270 375a.94.94 0 0 1-1.43.27l-.11-.08a.94.94 0 0 1-.16-1.41 12.16 12.16 0 0 1 1.92-1.84 10.07 10.07 0 0 1-2.55-.36Zm10.14 0a.94.94 0 0 1-.71-1.27l.06-.14a.94.94 0 0 1 1.3-.57 11.83 11.83 0 0 1 2.3 1.22 11.46 11.46 0 0 1-.43-2.65.94.94 0 0 1 1-1.06h.14a1 1 0 0 1 1 1.06 11 11 0 0 1-.44 2.65 12.47 12.47 0 0 1 2.31-1.22.94.94 0 0 1 1.3.6v.08a.92.92 0 0 1-.68 1.3 10.91 10.91 0 0 1-2.58.38 11.75 11.75 0 0 1 1.93 1.82 1 1 0 0 1-.17 1.41l-.1.08a1 1 0 0 1-1.44-.27 11.7 11.7 0 0 1-1.19-2.36 13.39 13.39 0 0 1-1.22 2.36 1 1 0 0 1-1.44.27l-.11-.08a.94.94 0 0 1-.16-1.41 12.16 12.16 0 0 1 1.92-1.84 10.07 10.07 0 0 1-2.59-.36Zm10.19 0a.94.94 0 0 1-.71-1.27l.06-.14a.94.94 0 0 1 1.3-.57 11.83 11.83 0 0 1 2.3 1.22 11.46 11.46 0 0 1-.43-2.65.94.94 0 0 1 1-1.06h.14a1 1 0 0 1 1 1.06 11 11 0 0 1-.44 2.65 12.47 12.47 0 0 1 2.31-1.22.94.94 0 0 1 1.3.6v.08a.92.92 0 0 1-.68 1.3 10.91 10.91 0 0 1-2.58.38 11.75 11.75 0 0 1 1.93 1.82 1 1 0 0 1-.17 1.41l-.1.08a1 1 0 0 1-1.44-.27 11.7 11.7 0 0 1-1.19-2.36 13.39 13.39 0 0 1-1.22 2.36 1 1 0 0 1-1.44.27l-.11-.08a1 1 0 0 1-.16-1.41 12.16 12.16 0 0 1 1.92-1.84 10.14 10.14 0 0 1-2.59-.36Zm10.09 0a.94.94 0 0 1-.71-1.27l.06-.14a.94.94 0 0 1 1.3-.57 11.83 11.83 0 0 1 2.3 1.22 11.46 11.46 0 0 1-.43-2.65.94.94 0 0 1 1-1.06h.14a1 1 0 0 1 1 1.06 11 11 0 0 1-.44 2.65 12.47 12.47 0 0 1 2.31-1.22.94.94 0 0 1 1.3.6v.08a.92.92 0 0 1-.68 1.3 10.83 10.83 0 0 1-2.58.38 11.75 11.75 0 0 1 1.93 1.82 1 1 0 0 1-.16 1.41l-.11.08a1 1 0 0 1-1.44-.27 11.7 11.7 0 0 1-1.19-2.36 13.39 13.39 0 0 1-1.22 2.36 1 1 0 0 1-1.44.27l-.11-.08a1 1 0 0 1-.16-1.41 12.62 12.62 0 0 1 1.92-1.84 10.14 10.14 0 0 1-2.59-.36Zm10.14 0a.94.94 0 0 1-.71-1.27l.06-.14a.94.94 0 0 1 1.3-.57 11.83 11.83 0 0 1 2.3 1.22 11.46 11.46 0 0 1-.43-2.65 1 1 0 0 1 1-1.06h.13a1 1 0 0 1 1 1.06 11 11 0 0 1-.44 2.65 12.47 12.47 0 0 1 2.31-1.22.94.94 0 0 1 1.3.6v.08a.92.92 0 0 1-.68 1.3 10.83 10.83 0 0 1-2.58.38 11.75 11.75 0 0 1 1.93 1.82 1 1 0 0 1-.16 1.41l-.11.08A1 1 0 0 1 313 375a11.7 11.7 0 0 1-1.19-2.36 13.39 13.39 0 0 1-1.22 2.36 1 1 0 0 1-1.44.27l-.11-.08a1 1 0 0 1-.16-1.41 12.62 12.62 0 0 1 1.92-1.84 10.14 10.14 0 0 1-2.57-.36Zm10.14 0a.94.94 0 0 1-.71-1.27l.06-.14a.94.94 0 0 1 1.3-.57 11.55 11.55 0 0 1 2.3 1.22 11.46 11.46 0 0 1-.43-2.65 1 1 0 0 1 1-1.06h.11a1 1 0 0 1 1 1.06 11 11 0 0 1-.44 2.65 12.47 12.47 0 0 1 2.31-1.22.94.94 0 0 1 1.3.6v.08a.92.92 0 0 1-.68 1.3 10.83 10.83 0 0 1-2.58.38 11.75 11.75 0 0 1 1.93 1.82 1 1 0 0 1-.16 1.41l-.11.08a1 1 0 0 1-1.44-.27 11.7 11.7 0 0 1-1.19-2.36 13.39 13.39 0 0 1-1.22 2.36 1 1 0 0 1-1.44.27l-.11-.08a1 1 0 0 1-.16-1.41 13.1 13.1 0 0 1 1.92-1.84 10.14 10.14 0 0 1-2.56-.36Zm10.14 0a.94.94 0 0 1-.71-1.27l.06-.14a.94.94 0 0 1 1.3-.57 11.55 11.55 0 0 1 2.3 1.22 11.46 11.46 0 0 1-.43-2.65 1 1 0 0 1 1-1.06h.13a1 1 0 0 1 1 1.06 11 11 0 0 1-.44 2.65 12.47 12.47 0 0 1 2.28-1.22.94.94 0 0 1 1.3.6v.08a.92.92 0 0 1-.68 1.3 10.83 10.83 0 0 1-2.58.38 11.75 11.75 0 0 1 1.93 1.82 1 1 0 0 1-.16 1.41l-.11.08a1 1 0 0 1-1.44-.27 11.7 11.7 0 0 1-1.19-2.36 13.39 13.39 0 0 1-1.22 2.36 1 1 0 0 1-1.44.27l-.11-.08a1 1 0 0 1-.16-1.41 12.72 12.72 0 0 1 1.93-1.84 10.16 10.16 0 0 1-2.56-.36Zm10.14 0a.94.94 0 0 1-.71-1.27l.06-.14a.94.94 0 0 1 1.3-.57 11.55 11.55 0 0 1 2.3 1.22 11.46 11.46 0 0 1-.43-2.65 1 1 0 0 1 1-1.06h.13a1 1 0 0 1 1 1.06 11 11 0 0 1-.44 2.65 12.47 12.47 0 0 1 2.31-1.22.94.94 0 0 1 1.3.6v.08a.92.92 0 0 1-.68 1.3 10.83 10.83 0 0 1-2.58.38 11.75 11.75 0 0 1 1.93 1.82 1 1 0 0 1-.16 1.41l-.11.08a1 1 0 0 1-1.44-.27 11.7 11.7 0 0 1-1.19-2.36A13.39 13.39 0 0 1 341 375a1 1 0 0 1-1.44.27l-.11-.08a1 1 0 0 1-.16-1.41 12.72 12.72 0 0 1 1.93-1.84 10.16 10.16 0 0 1-2.57-.36Z" style="opacity:.2"/>
  <g style="opacity:.2">
    <path d="M429.4 322.38v-7.12a8.14 8.14 0 0 1 16.27 0v7.07h3.24v-7.07a11.38 11.38 0 0 0-22.75 0v7.12Zm-4.44.02h24.83v20.54h-24.83z" style="fill:none;stroke:#000;stroke-miterlimit:10"/>
    <path d="M440 330.93a2.71 2.71 0 0 0-5.41 0 2.63 2.63 0 0 0 1.42 2.33l-.46 4.66H439l-.45-4.66a2.65 2.65 0 0 0 1.45-2.33Z" style="fill:none;stroke:#000;stroke-miterlimit:10"/>
  </g>
  <g style="opacity:.2">
    <path d="M77.61 99v-7.14a8.14 8.14 0 0 1 16.27 0v7.07h3.24v-7.07a11.38 11.38 0 0 0-22.75 0V99Zm-4.44 0H98v20.54H73.17z" style="fill:none;stroke:#000;stroke-miterlimit:10"/>
    <path d="M88.17 107.53a2.71 2.71 0 0 0-5.41 0 2.63 2.63 0 0 0 1.42 2.33l-.46 4.67h3.48l-.45-4.67a2.65 2.65 0 0 0 1.42-2.33Z" style="fill:none;stroke:#000;stroke-miterlimit:10"/>
  </g>
  <g style="opacity:.2">
    <path d="M387.62 45.17V40.5a5.34 5.34 0 0 1 10.67 0v4.64h2.13V40.5a7.46 7.46 0 0 0-14.92 0v4.67Zm-2.91.01H401v13.48h-16.29z" style="fill:none;stroke:#000;stroke-miterlimit:10"/>
    <path d="M394.55 50.78a1.78 1.78 0 0 0-3.55 0 1.72 1.72 0 0 0 .93 1.52l-.3 3.07h2.28l-.29-3.07a1.72 1.72 0 0 0 .93-1.52Z" style="fill:none;stroke:#000;stroke-miterlimit:10"/>
  </g>
  <path d="M208.36 120.01h127.5v112.5h-127.5z" style="opacity:.30000000000000004"/>
  <path d="M211.56 114.26h127.5v112.5h-127.5z" style="fill:#fff;stroke:#263238;stroke-linecap:round;stroke-linejoin:round"/>
  <path d="M211.56 114.26h127.5v8.04h-127.5z" style="fill:#263238;stroke:#263238;stroke-linecap:round;stroke-linejoin:round"/>
  <path d="M267.34 162.44v-11.86a8.13 8.13 0 0 1 16.26 0v6.93h3.24v-6.93a11.37 11.37 0 0 0-22.74 0v11.86Z" style="fill:#fff;stroke:#263238;stroke-linecap:round;stroke-linejoin:round"/>
  <path d="M262.89 161.28h24.83v20.54h-24.83z" style="fill:#407bff;stroke:#263238;stroke-linecap:round;stroke-linejoin:round"/>
  <path d="M277.89 169.81a2.71 2.71 0 1 0-4 2.33l-.45 4.67h3.47l-.45-4.67a2.63 2.63 0 0 0 1.43-2.33Z" style="fill:#263238;stroke:#263238;stroke-linecap:round;stroke-linejoin:round"/>
  <rect width="96.91" height="17.49" x="226.85" y="190.19" rx="4" style="fill:#fff;stroke:#263238;stroke-linecap:round;stroke-linejoin:round"/>
  <path d="M236.26 199.49a.94.94 0 0 1-.7-1.28l.05-.13a.94.94 0 0 1 1.3-.57 11.1 11.1 0 0 1 2.31 1.22 11 11 0 0 1-.44-2.66 1 1 0 0 1 1-1.06h.14a1 1 0 0 1 1 1.06 11.45 11.45 0 0 1-.43 2.66 12.14 12.14 0 0 1 2.3-1.22.93.93 0 0 1 1.3.59v.09a.93.93 0 0 1-.68 1.3 11.36 11.36 0 0 1-2.57.38 10.86 10.86 0 0 1 1.92 1.81 1 1 0 0 1-.16 1.41l-.11.09a.94.94 0 0 1-1.44-.28 12.13 12.13 0 0 1-1.19-2.35 13.26 13.26 0 0 1-1.22 2.35.94.94 0 0 1-1.44.28l-.1-.09a1 1 0 0 1-.17-1.41 12.72 12.72 0 0 1 1.93-1.84 10.25 10.25 0 0 1-2.6-.35Zm10.14 0a.94.94 0 0 1-.7-1.28l.05-.13a.94.94 0 0 1 1.3-.57 11.1 11.1 0 0 1 2.31 1.22 11 11 0 0 1-.44-2.66 1 1 0 0 1 1-1.06h.08a1 1 0 0 1 1 1.06 11.45 11.45 0 0 1-.43 2.66 12.14 12.14 0 0 1 2.3-1.22 1 1 0 0 1 1.31.59v.09a.93.93 0 0 1-.68 1.3 11.36 11.36 0 0 1-2.57.38 10.86 10.86 0 0 1 1.92 1.81 1 1 0 0 1-.16 1.41l-.11.09a.93.93 0 0 1-1.43-.28 11.57 11.57 0 0 1-1.2-2.35 13.26 13.26 0 0 1-1.22 2.35.94.94 0 0 1-1.44.28l-.1-.09a1 1 0 0 1-.17-1.41 12.72 12.72 0 0 1 1.93-1.84 10.25 10.25 0 0 1-2.55-.35Zm10.14 0a1 1 0 0 1-.7-1.28v-.13a.94.94 0 0 1 1.3-.57 11.1 11.1 0 0 1 2.31 1.22 11 11 0 0 1-.43-2.66 1 1 0 0 1 1-1.06h.14a1 1 0 0 1 1 1.06 11.45 11.45 0 0 1-.43 2.66 12.14 12.14 0 0 1 2.3-1.22 1 1 0 0 1 1.31.59v.09a.93.93 0 0 1-.67 1.3 11.54 11.54 0 0 1-2.58.38 10.86 10.86 0 0 1 1.92 1.81 1 1 0 0 1-.16 1.41l-.11.09a.93.93 0 0 1-1.43-.28 12.1 12.1 0 0 1-1.2-2.35 13.26 13.26 0 0 1-1.22 2.35.93.93 0 0 1-1.43.28l-.11-.09a1 1 0 0 1-.17-1.41 12.72 12.72 0 0 1 1.93-1.84 10.25 10.25 0 0 1-2.57-.35Zm10.14 0a1 1 0 0 1-.7-1.28v-.13a.94.94 0 0 1 1.3-.57 11.1 11.1 0 0 1 2.31 1.22 11.45 11.45 0 0 1-.43-2.66 1 1 0 0 1 1-1.06h.14a1 1 0 0 1 1 1.06 11.45 11.45 0 0 1-.43 2.66 12.14 12.14 0 0 1 2.3-1.22 1 1 0 0 1 1.31.59v.09a.93.93 0 0 1-.67 1.3 11.54 11.54 0 0 1-2.58.38 10.86 10.86 0 0 1 1.92 1.81 1 1 0 0 1-.16 1.41l-.11.09a.93.93 0 0 1-1.43-.28 12.1 12.1 0 0 1-1.2-2.35 13.26 13.26 0 0 1-1.25 2.35.93.93 0 0 1-1.43.28l-.11-.09a1 1 0 0 1-.17-1.41 12.72 12.72 0 0 1 1.93-1.84 10.25 10.25 0 0 1-2.54-.35Zm10.14 0a1 1 0 0 1-.7-1.28l.05-.13a1 1 0 0 1 1.31-.57 11.3 11.3 0 0 1 2.3 1.22 11.45 11.45 0 0 1-.43-2.66 1 1 0 0 1 1-1.06h.14a1 1 0 0 1 1 1.06 11.45 11.45 0 0 1-.43 2.66 12.14 12.14 0 0 1 2.3-1.22 1 1 0 0 1 1.31.59v.09a.93.93 0 0 1-.67 1.3 11.54 11.54 0 0 1-2.58.38 10.86 10.86 0 0 1 1.92 1.81 1 1 0 0 1-.16 1.41l-.11.09a.93.93 0 0 1-1.43-.28 12.1 12.1 0 0 1-1.2-2.35 13.26 13.26 0 0 1-1.22 2.35.93.93 0 0 1-1.43.28l-.11-.09a.94.94 0 0 1-.16-1.41 12.16 12.16 0 0 1 1.92-1.84 10.25 10.25 0 0 1-2.62-.35Zm10.18 0a1 1 0 0 1-.7-1.28l.05-.13a1 1 0 0 1 1.31-.57 11.3 11.3 0 0 1 2.3 1.22 11.45 11.45 0 0 1-.43-2.66 1 1 0 0 1 1-1.06h.14a1 1 0 0 1 1 1.06 11.45 11.45 0 0 1-.43 2.66 11.9 11.9 0 0 1 2.31-1.22.94.94 0 0 1 1.3.59v.09a.93.93 0 0 1-.67 1.3 11.45 11.45 0 0 1-2.58.38 11.31 11.31 0 0 1 1.93 1.81 1 1 0 0 1-.17 1.41l-.11.09a.93.93 0 0 1-1.43-.28 12.1 12.1 0 0 1-1.2-2.35 13.26 13.26 0 0 1-1.22 2.35.93.93 0 0 1-1.43.28l-.11-.09a.94.94 0 0 1-.16-1.41 12.16 12.16 0 0 1 1.92-1.84 10.25 10.25 0 0 1-2.62-.35Zm10.11 0a1 1 0 0 1-.71-1.28l.05-.13a1 1 0 0 1 1.31-.57 11.3 11.3 0 0 1 2.3 1.22 11.45 11.45 0 0 1-.43-2.66 1 1 0 0 1 1-1.06h.14a1 1 0 0 1 1 1.06 11 11 0 0 1-.44 2.66 11.9 11.9 0 0 1 2.31-1.22.94.94 0 0 1 1.3.59v.09a.93.93 0 0 1-.68 1.3 11.45 11.45 0 0 1-2.58.38 11.31 11.31 0 0 1 1.93 1.81 1 1 0 0 1-.17 1.41l-.1.09a.94.94 0 0 1-1.44-.28 11.59 11.59 0 0 1-1.19-2.35 13.22 13.22 0 0 1-1.23 2.35.93.93 0 0 1-1.43.28l-.11-.09a.94.94 0 0 1-.16-1.41 12.16 12.16 0 0 1 1.92-1.84 10.1 10.1 0 0 1-2.59-.35Zm10.14 0a1 1 0 0 1-.71-1.28v-.13a1 1 0 0 1 1.31-.57 11.3 11.3 0 0 1 2.3 1.22 11.45 11.45 0 0 1-.43-2.66 1 1 0 0 1 1-1.06h.14a1 1 0 0 1 1 1.06 11 11 0 0 1-.44 2.66 11.9 11.9 0 0 1 2.31-1.22.94.94 0 0 1 1.3.59v.09a.93.93 0 0 1-.68 1.3 11.45 11.45 0 0 1-2.58.38 11.31 11.31 0 0 1 1.93 1.81 1 1 0 0 1-.17 1.41l-.11.09a.93.93 0 0 1-1.43-.28 11.59 11.59 0 0 1-1.19-2.35 13.22 13.22 0 0 1-1.23 2.35.93.93 0 0 1-1.43.28l-.11-.09a.94.94 0 0 1-.16-1.41 12.16 12.16 0 0 1 1.92-1.84 10.1 10.1 0 0 1-2.54-.35Z" style="fill:#263238"/>
  <path d="M148.35 454.5h3.45a.89.89 0 0 0 .89-.84l2.74-28.54h-10.7l2.73 28.54a.9.9 0 0 0 .89.84Zm-33.35 0h3.45a.9.9 0 0 0 .89-.84l2.73-28.54h-10.7l2.74 28.54a.89.89 0 0 0 .89.84Zm54.35 0h3.45a.89.89 0 0 0 .89-.84l2.74-28.54h-10.7l2.73 28.54a.9.9 0 0 0 .89.84Zm34.65 0h3.45a.9.9 0 0 0 .89-.84l2.73-28.54h-10.7l2.74 28.54a.89.89 0 0 0 .89.84Z" style="fill:#fff;stroke:#263238;stroke-linecap:round;stroke-linejoin:round"/>
  <path d="M153.56 426.29h68.52s7-23.4 12.46-46 11.68-51 5.06-56.85-24.14 4.29-37.38 7-16-.39-24.91-9.73-16.74-24.53-31.93-34.26-26.47-11.29-37-4.67a36.27 36.27 0 0 0-11.3 24.13c-.77 15.19 3.51 34.27 9 44.78s47.48 75.6 47.48 75.6Z" style="fill:#fff;stroke:#263238;stroke-linecap:round;stroke-linejoin:round"/>
  <path d="M143.93 383.45h74s13.33-13.33 15.33-45.33" style="fill:none;stroke:#263238;stroke-linecap:round;stroke-linejoin:round"/>
  <path d="m195.66 254.05-8.38 5.12s5.82 31.89 4.43 48.65-8.38 32.82-8.38 32.82h22.57s8.38-20 12.11-34-2.79-46.79-2.79-46.79Z" style="fill:#757575;stroke:#263238;stroke-linecap:round;stroke-linejoin:round"/>
  <path d="M288.56 339.05s4.81-1.53 6.1-1.52 5.48 3.29 5.48 3.29.17 1.2-.78 1.45-4.2-2-4.2-2l-5.41 1.6Z" style="fill:#d9d9d9;stroke:#263238;stroke-linecap:round;stroke-linejoin:round"/>
  <path d="M289.08 336a40.71 40.71 0 0 1 6.15 1.35c1.15.57 3.45 5.37 3.45 5.37s-.38 1.15-1.34 1-2.88-3.65-2.88-3.65l-5.57-1Z" style="fill:#d9d9d9;stroke:#263238;stroke-linecap:round;stroke-linejoin:round"/>
  <path d="m283.83 334.45 6.34 1.54 4 2.69 2.3 5.56a2.12 2.12 0 0 1-1.73.58c-1-.19-5-4.61-5-4.61l-5.74-3.65-1.92-2.11Z" style="fill:#d9d9d9;stroke:#263238;stroke-linecap:round;stroke-linejoin:round"/>
  <path d="M270 332.73s9.79.38 11.9.38 7.68 4.41 8.64 4.8 5 6.14 5 6.14.19 0-1.15.39-3.46-1-3.46-1l-2.68-3.27-6.53-1.15s4.8 2.5 5.95 2.88 1.92 1.73 1.54 2.5-6.18-1.72-6.18-1.72a5.22 5.22 0 0 1-4.47 0c-2.31-1.15-2.61-1.18-5.05-2.31s-7.34-4-7.34-4Z" style="fill:#d9d9d9;stroke:#263238;stroke-linecap:round;stroke-linejoin:round"/>
  <path d="M220.1 264.29s3.73.7 4.66 2.79 7 49.59 7 49.59l40 14.62-.77 14s-47.37-5.81-50.63-5.11-11.18 1.63-14.44-.94S215 326 217.26 316.12c5.34-23.33 4.67-39.33 4.67-39.33s-6.48-15.29-1.83-12.5Z" style="fill:#407bff;stroke:#263238;stroke-linecap:round;stroke-linejoin:round"/>
  <path d="M225.23 291.52s-5.82 23.28-8.38 29.57-7.69 16.76-7.69 16.76l-5.58.93s11.64-25.14 13.73-35.15-2.56-35.38-2.79-36.31 1.63-6.75 5.12-5.59" style="fill:#407bff;stroke:#263238;stroke-linecap:round;stroke-linejoin:round"/>
  <path d="M214.75 285.01 208 302l-7.22-18.16 8.62-6.75 5.35 7.92z" style="fill:#fff;stroke:#263238;stroke-linecap:round;stroke-linejoin:round"/>
  <path d="m216.38 271.27 2.56 19.79-10.94-8.38 8.38-11.41z" style="fill:#fff;stroke:#263238;stroke-linecap:round;stroke-linejoin:round"/>
  <path d="M246.88 236.07s-.24 13.14-1.31 15-3.33 4.63-3.43 7.14 2.9 7.93 1.1 9.67a4.41 4.41 0 0 1-4.27.89s-5.85 7-9.12 8.62-12-3-12-3l-8.71 9-16.06-29.1 9.2-6.19s3.55-18.29 14.94-22.14 27.88 5.5 29.66 10.11Z" style="fill:#d9d9d9;stroke:#263238;stroke-linecap:round;stroke-linejoin:round"/>
  <path d="M214.8 252.63s-3.52 7.35-.5 12" style="fill:none;stroke:#263238;stroke-linecap:round;stroke-linejoin:round"/>
  <path d="M237.25 254.85c-.44 1-.42 2 .05 2.18s1.21-.43 1.65-1.43.43-2 0-2.18-1.25.43-1.7 1.43Z" style="fill:#263238"/>
  <path d="M235.11 269.33s-3.52-.71-3.52-3.52m3.28-10.08 2.58 2.35M242 251s-.13-3.45-5.72-2" style="fill:none;stroke:#263238;stroke-linecap:round;stroke-linejoin:round"/>
  <path d="M254.55 226.23c-2.46.27-4.91 2.18-5.73.54s-.27-7.64-4.37-8.18-3.82 1.36-5.18 1.64-3-6-8.18-5.19-8.44 3-8.73 4.08c-8.94-.07-14.44 3.57-18.38 10.87-4.33 8-1.68 18.1-1.68 18.1s-4.08 3.16-.82 4.09 13.32.45 13.32.45l-1.06-.47c-1.07-.47-2.79-4 .73-9.1s5.91-.69 6.22 1.49.49 4 1.77 4.61 2.15-.83 2.48-2.72 4.18-2 7-3.24.15-3.75-2.22-7.61 3.64-4.75 9.22-1.25c3.22 2 4.9 3.1 6.49 3.3l.08.05s2.72 2.18 4.91.27 3.54-2.18 5.45-4.37 1.13-7.59-1.32-7.36Z" style="fill:#263238;stroke:#263238;stroke-linecap:round;stroke-linejoin:round"/>
  <path d="m194 252.65 15.37 29.8-9.78 10.24s-8.38-22.58-9.31-28.17-1.63-9.54-1.63-9.54Z" style="fill:#fff;stroke:#263238;stroke-linecap:round;stroke-linejoin:round"/>
  <path d="M202.93 336.79s45-2.34 50.67 0 7 8.33 6.33 14.33-4 41.33-5.33 51.33-2 22.34-1 24.67 4 6.33 3 8.67-2.67 3.33-2.67 4.33a6.41 6.41 0 0 0 1.33 2.67s12.34 5.33 16.67 7 4.67 3 3.67 3.66-21.67 0-25.34 0-10.66-2.33-10.66-2.33v1.67h-9v-6.34a54.53 54.53 0 0 1 .33-6s-1.67-4.33-1.33-6 2.33-5.33 3-8.66 0-8-.34-11.67a28.33 28.33 0 0 1 .34-8c.33-2-2-38.33-2-38.33s-26.34 8-29 8.33-24.34 8.33-33.34 6 3.67-30.67 13.67-40.33 21-5 21-5Z" style="fill:#263238;stroke:#263238;stroke-linecap:round;stroke-linejoin:round"/>
  <path d="M184.6 333.45s29.66 2.34 33 5.67 2.33 10 2.33 14.33-4 62-4.33 65.34 3.33 6.66 2 9a15.22 15.22 0 0 0-2 6c0 1 9 8.33 12.66 10.33s14 4.33 15.67 6 1.33 3-1.67 4-28 0-28 0-3.66 0-5-1a9.09 9.09 0 0 0-2.33-1.33l-.33 2.21h-13a94 94 0 0 1-1.34-10.9 54 54 0 0 1 1-8.33 10.42 10.42 0 0 1-1.66-6c.33-3 2.66-4.34 2.66-6.34s-2-8-1.66-11.66.66-8 .66-8l-3-29.34s-20 11-29.66 10-12.34-2.33-15-7-2.67-24.33 1.66-32 28.34-14.64 37.34-10.98Z" style="fill:#263238;stroke:#263238;stroke-linecap:round;stroke-linejoin:round"/>
  <path d="M188.68 255s7 17.46 7.68 27.93-.23 34.92-2.79 41.9-3.73 11.41-3.73 11.41-23.27 3.49-26.3 4.65-9.31 10.25-10.48 17.93c-.33 2.21-.57 4.6-.74 6.88a56.89 56.89 0 0 0 1.17 15.56c.19 1 .23 1.76-.06 2.05-.93.93-13.4-4.71-17.59-19.14s-2.1-31.42 1.63-39.34 18.15-55.17 24.44-61.45 26.77-8.38 26.77-8.38Z" style="fill:#407bff;stroke:#263238;stroke-linecap:round;stroke-linejoin:round"/>
  <path d="M267.43 338.84s8.8 1.14 11.07 1.71a7.69 7.69 0 0 1 3.8 2.63l-.85.79-6.36-2.41Z" style="fill:#d9d9d9;stroke:#263238;stroke-linecap:round;stroke-linejoin:round"/>
  <path d="M271 340.24s5.37.33 6 1 3.51 5.48 3.51 5.48l-1.31.88-3.62-3.4-4.58-2.53Z" style="fill:#d9d9d9;stroke:#263238;stroke-linecap:round;stroke-linejoin:round"/>
  <path d="M261.16 338.26s10 .85 11.95 2 4.5 6.25 4.5 6.25l-1.42.56-4.82-4.82-11.91-2Z" style="fill:#d9d9d9;stroke:#263238;stroke-linecap:round;stroke-linejoin:round"/>
  <path d="M260.72 343.31s2.75 1.43 4.17 1.43 5.92-1.54 5.92-1.54a53.92 53.92 0 0 0-5.37-2c-.88-.08-4.72 2.11-4.72 2.11Z" style="fill:#d9d9d9;stroke:#263238;stroke-linecap:round;stroke-linejoin:round"/>
  <path d="M249 333.72s11.91 2.84 13.33 3.69 8.23 4.25 9.08 4.82 3.41 5.11 3.41 5.11-1.71 2-2.27.56a19.23 19.23 0 0 0-3.12-4l-5.11-1.7a15.09 15.09 0 0 1-6 1.42c-3.12 0-6.48-3.08-6.48-3.08l-5.72 1.46Z" style="fill:#d9d9d9;stroke:#263238;stroke-linecap:round;stroke-linejoin:round"/>
  <path d="M178.46 267.24s7.07 6.17 7.65 13.13.5 9.76.55 10.93 4.2 31.74 4.2 31.74l59.43 9.63-1.14 13.2-67.72-1.3s-4.62.93-7.12-2.44-17-54.48-17-54.48" style="fill:#407bff;stroke:#263238;stroke-linecap:round;stroke-linejoin:round"/>
  <path d="M179.21 327.69a12.13 12.13 0 0 0-1.79 1.91m12.58-5.53a18.47 18.47 0 0 0-8.41 2m4.3.54s-5.73 1.92-6.92 5.94" style="fill:none;stroke:#263238;stroke-linecap:round;stroke-linejoin:round"/>
  <path d="M153.56 426.29s-1.17-41.7-11.68-69-16.74-30.76-21-29.59-10.51 8.56-14.4 3.5-9.73-19.08-7.4-31.54 7-14.79 9.35-17.9-10.13 4.28-15.58 12.45-5.45 28-2.33 48.67 10.9 79.08 13.62 81.41 9.35 2.34 9.35 2.34h35.82Zm102.75-81.74h91.5v4h-91.5z" style="fill:#fff;stroke:#263238;stroke-linecap:round;stroke-linejoin:round"/>
  <path d="M303.49 344.55h44.32v4h-44.32z" style="fill:#b2b2b2;stroke:#263238;stroke-linecap:round;stroke-linejoin:round"/>
  <path d="M360.56 308.79h-44.32l-12.75 35.75h44.32l12.75-35.75z" style="fill:#d9d9d9;stroke:#263238;stroke-linecap:round;stroke-linejoin:round"/>
  <path d="M314.07 351h.63a2.59 2.59 0 0 1 2.59 2.59v101h0-5.8 0v-101a2.59 2.59 0 0 1 2.58-2.59Z" style="fill:#525252;stroke:#263238;stroke-linecap:round;stroke-linejoin:round" transform="rotate(180 314.38 402.79)"/>
  <path d="M324.62 351h.63a2.59 2.59 0 0 1 2.59 2.59v101h0H322h0v-101a2.59 2.59 0 0 1 2.62-2.59Z" style="fill:#525252;stroke:#263238;stroke-linecap:round;stroke-linejoin:round" transform="rotate(180 324.93 402.79)"/>
  <path d="M242.52 351h.63a2.59 2.59 0 0 1 2.59 2.59v101h0-5.8 0v-101a2.59 2.59 0 0 1 2.58-2.59Z" style="fill:#525252;stroke:#263238;stroke-linecap:round;stroke-linejoin:round" transform="rotate(180 242.835 402.79)"/>
  <path d="M387 351h.63a2.59 2.59 0 0 1 2.59 2.59v101h0-5.8 0v-101A2.59 2.59 0 0 1 387 351Z" style="fill:#525252;stroke:#263238;stroke-linecap:round;stroke-linejoin:round" transform="rotate(-180 387.3 402.79)"/>
  <path d="M233.17 348.66h162.49v4.72H233.17z" style="fill:#fff;stroke:#263238;stroke-linecap:round;stroke-linejoin:round" transform="rotate(180 314.42 351.02)"/>
  <path d="M233.17 398.7h162.49v4.72H233.17z" style="fill:#fff;stroke:#263238;stroke-linecap:round;stroke-linejoin:round" transform="rotate(180 314.42 401.055)"/>
  <path d="M262.15 393.88h42.43v4.73h-42.43z" style="fill:#fff;stroke:#263238;stroke-linecap:round;stroke-linejoin:round"/>
  <path d="M285.53 393.88h19.06v4.73h-19.06zm41.04 0H369v4.73h-42.43z" style="fill:#fff;stroke:#263238;stroke-linecap:round;stroke-linejoin:round"/>
  <path d="M349.95 393.88h19.06v4.73h-19.06zm-91.3-4.95h42.43v4.73h-42.43z" style="fill:#fff;stroke:#263238;stroke-linecap:round;stroke-linejoin:round"/>
  <path d="M282.02 388.93h19.06v4.73h-19.06z" style="fill:#fff;stroke:#263238;stroke-linecap:round;stroke-linejoin:round"/>
  <path d="M37.3 454.56h438" style="fill:none;stroke:#263238;stroke-linecap:round;stroke-linejoin:round"/>
</svg>
