<svg xmlns="http://www.w3.org/2000/svg" fill="#fff" stroke="currentColor" stroke-width="0" class="inline text-lg" viewBox="0 0 18 16">
  <path stroke="none" d="M3.5 2h-3c-.275 0-.5.225-.5.5v11c0 .275.225.5.5.5h3c.275 0 .5-.225.5-.5v-11c0-.275-.225-.5-.5-.5zM3 5H1V4h2v1zm5.5-3h-3c-.275 0-.5.225-.5.5v11c0 .275.225.5.5.5h3c.275 0 .5-.225.5-.5v-11c0-.275-.225-.5-.5-.5zM8 5H6V4h2v1z"/>
  <path stroke="none" d="m11.954 2.773-2.679 1.35c-.246.124-.345.426-.222.671l4.5 8.93c.124.246.426.345.671.222l2.679-1.35c.246-.124.345-.426.222-.671l-4.5-8.93c-.124-.246-.426-.345-.671-.222z"/>
  <path stroke="none" d="M14.5 13.5c0 .276-.224.5-.5.5s-.5-.224-.5-.5.224-.5.5-.5.5.224.5.5z"/>
</svg>
